<svg width="16" height="15" viewBox="0 0 16 15" fill="none" xmlns="http://www.w3.org/2000/svg">
<path d="M11.9744 14.2435L8.625 12.2892V8.39895L11.9744 6.44395L15.3398 8.4002V12.2756L11.9744 14.2435ZM10.0802 8.66979L11.9823 9.77562L13.8846 8.66979L11.9823 7.57687L10.0802 8.66979ZM12.4792 12.7948L14.346 11.7167V9.43583L12.4792 10.5481V12.7948ZM9.61854 11.7196L11.4856 12.8156V10.569L9.61854 9.46479V11.7196ZM6.33333 6.74354C5.53125 6.74354 4.84465 6.45798 4.27354 5.88687C3.70229 5.31562 3.41667 4.62895 3.41667 3.82687C3.41667 3.02479 3.70229 2.33819 4.27354 1.76708C4.84465 1.19583 5.53125 0.910202 6.33333 0.910202C7.13542 0.910202 7.82201 1.19583 8.39312 1.76708C8.96437 2.33819 9.25 3.02479 9.25 3.82687C9.25 4.62895 8.96437 5.31562 8.39312 5.88687C7.82201 6.45798 7.13542 6.74354 6.33333 6.74354ZM0.0833321 13.0898V11.2371C0.0833321 10.8162 0.190693 10.4351 0.405415 10.0937C0.620138 9.75235 0.91986 9.48819 1.30458 9.30124C1.9968 8.95624 2.74465 8.66805 3.54812 8.43666C4.35146 8.20541 5.27986 8.08979 6.33333 8.08979H6.57687C6.64424 8.08979 6.71687 8.09833 6.79479 8.11541C6.71048 8.31194 6.64083 8.51222 6.58583 8.71624C6.53069 8.92041 6.485 9.12826 6.44875 9.33979H6.33333C5.37389 9.33979 4.52451 9.45006 3.78521 9.67062C3.0459 9.89131 2.41021 10.14 1.87812 10.4167C1.6891 10.5182 1.55104 10.6368 1.46396 10.7725C1.37687 10.9082 1.33333 11.063 1.33333 11.2371V11.8398H6.58333C6.64528 12.0513 6.72569 12.266 6.82458 12.484C6.92333 12.7019 7.03201 12.9038 7.15062 13.0898H0.0833321ZM6.33333 5.49354C6.79167 5.49354 7.18403 5.33034 7.51042 5.00395C7.8368 4.67756 8 4.2852 8 3.82687C8 3.36854 7.8368 2.97617 7.51042 2.64979C7.18403 2.3234 6.79167 2.1602 6.33333 2.1602C5.875 2.1602 5.48264 2.3234 5.15625 2.64979C4.82986 2.97617 4.66667 3.36854 4.66667 3.82687C4.66667 4.2852 4.82986 4.67756 5.15625 5.00395C5.48264 5.33034 5.875 5.49354 6.33333 5.49354Z" fill="#383838"/>
</svg>
