<svg width="16" height="16" viewBox="0 0 16 16" fill="none" xmlns="http://www.w3.org/2000/svg">
<path d="M7.375 11.9583H8.625V8.625H11.9583V7.375H8.625V4.04167H7.375V7.375H4.04167V8.625H7.375V11.9583ZM8.00146 15.9167C6.90646 15.9167 5.87722 15.7089 4.91375 15.2933C3.95028 14.8778 3.11222 14.3138 2.39958 13.6015C1.68694 12.8891 1.12271 12.0514 0.706874 11.0883C0.291179 10.1253 0.0833321 9.09632 0.0833321 8.00146C0.0833321 6.90646 0.29111 5.87722 0.706665 4.91375C1.12222 3.95028 1.68618 3.11222 2.39854 2.39958C3.1109 1.68694 3.94861 1.12271 4.91167 0.706874C5.87472 0.291179 6.90368 0.0833321 7.99854 0.0833321C9.09354 0.0833321 10.1228 0.29111 11.0862 0.706665C12.0497 1.12222 12.8878 1.68618 13.6004 2.39854C14.3131 3.1109 14.8773 3.94861 15.2931 4.91167C15.7088 5.87472 15.9167 6.90368 15.9167 7.99854C15.9167 9.09354 15.7089 10.1228 15.2933 11.0862C14.8778 12.0497 14.3138 12.8878 13.6015 13.6004C12.8891 14.3131 12.0514 14.8773 11.0883 15.2931C10.1253 15.7088 9.09632 15.9167 8.00146 15.9167ZM8 14.6667C9.86111 14.6667 11.4375 14.0208 12.7292 12.7292C14.0208 11.4375 14.6667 9.86111 14.6667 8C14.6667 6.13889 14.0208 4.5625 12.7292 3.27083C11.4375 1.97917 9.86111 1.33333 8 1.33333C6.13889 1.33333 4.5625 1.97917 3.27083 3.27083C1.97917 4.5625 1.33333 6.13889 1.33333 8C1.33333 9.86111 1.97917 11.4375 3.27083 12.7292C4.5625 14.0208 6.13889 14.6667 8 14.6667Z" fill="#383838"/>
</svg>
