<svg width="18" height="18" viewBox="0 0 18 18" fill="none" xmlns="http://www.w3.org/2000/svg">
<path d="M6.74688 12.2531L9 10.8862L11.2531 12.2531L10.6554 9.69062L12.6538 7.96791L10.024 7.74687L9 5.3302L7.97604 7.74687L5.34625 7.96791L7.34458 9.69062L6.74688 12.2531ZM9 17.8398L6.38458 15.25H2.75V11.6154L0.16021 8.99999L2.75 6.38458V2.74999H6.38458L9 0.160202L11.6154 2.74999H15.25V6.38458L17.8398 8.99999L15.25 11.6154V15.25H11.6154L9 17.8398ZM9 16.0833L11.0833 14H14V11.0833L16.0833 8.99999L14 6.91666V3.99999H11.0833L9 1.91666L6.91667 3.99999H4V6.91666L1.91667 8.99999L4 11.0833V14H6.91667L9 16.0833Z" fill="#2C2C2C"/>
</svg>
