<svg width="21" height="17" viewBox="0 0 21 17" fill="none" xmlns="http://www.w3.org/2000/svg">
<path d="M2.49878 16.6362C1.94878 16.6362 1.47795 16.4404 1.08628 16.0487C0.694613 15.6571 0.498779 15.1862 0.498779 14.6362V2.63623C0.498779 2.08623 0.694613 1.6154 1.08628 1.22373C1.47795 0.832064 1.94878 0.63623 2.49878 0.63623H18.4988C19.0488 0.63623 19.5196 0.832064 19.9113 1.22373C20.3029 1.6154 20.4988 2.08623 20.4988 2.63623V14.6362C20.4988 15.1862 20.3029 15.6571 19.9113 16.0487C19.5196 16.4404 19.0488 16.6362 18.4988 16.6362H2.49878ZM2.49878 7.63623H6.49878V2.63623H2.49878V7.63623ZM8.49878 7.63623H12.4988V2.63623H8.49878V7.63623ZM14.4988 7.63623H18.4988V2.63623H14.4988V7.63623ZM6.49878 14.6362V9.63623H2.49878V14.6362H6.49878ZM8.49878 14.6362H12.4988V9.63623H8.49878V14.6362ZM14.4988 14.6362H18.4988V9.63623H14.4988V14.6362Z" fill="#3E3C3C"/>
</svg>
