<svg width="16" height="14" viewBox="0 0 16 14" fill="none" xmlns="http://www.w3.org/2000/svg">
<path d="M5.97125 9.91667L8 8.375L9.98708 9.90063L9.22437 7.43583L11.2852 5.82688H8.80437L8 3.34625L7.19562 5.82688H4.71479L6.73396 7.43583L5.97125 9.91667ZM1.58979 13.25C1.17423 13.25 0.819235 13.1028 0.52479 12.8085C0.230485 12.5141 0.0833321 12.1591 0.0833321 11.7435V9.46C0.0833321 9.32319 0.122638 9.20194 0.201249 9.09625C0.279721 8.99042 0.384651 8.91826 0.51604 8.87979C0.881457 8.70993 1.17847 8.45778 1.40708 8.12333C1.63569 7.78903 1.75 7.41458 1.75 7C1.75 6.58542 1.63569 6.21097 1.40708 5.87667C1.17847 5.54222 0.881457 5.29007 0.51604 5.12021C0.384651 5.08174 0.279721 5.00958 0.201249 4.90375C0.122638 4.79806 0.0833321 4.67681 0.0833321 4.54V2.25646C0.0833321 1.8409 0.230485 1.4859 0.52479 1.19146C0.819235 0.897153 1.17423 0.75 1.58979 0.75H14.4102C14.8258 0.75 15.1808 0.897153 15.4752 1.19146C15.7695 1.4859 15.9167 1.8409 15.9167 2.25646V4.54C15.9167 4.67681 15.8774 4.79806 15.7987 4.90375C15.7203 5.00958 15.6153 5.08174 15.484 5.12021C15.1185 5.29007 14.8215 5.54222 14.5929 5.87667C14.3643 6.21097 14.25 6.58542 14.25 7C14.25 7.41458 14.3643 7.78903 14.5929 8.12333C14.8215 8.45778 15.1185 8.70993 15.484 8.87979C15.6153 8.91826 15.7203 8.99042 15.7987 9.09625C15.8774 9.20194 15.9167 9.32319 15.9167 9.46V11.7435C15.9167 12.1591 15.7695 12.5141 15.4752 12.8085C15.1808 13.1028 14.8258 13.25 14.4102 13.25H1.58979ZM1.58979 12H14.4102C14.4851 12 14.5465 11.976 14.5946 11.9279C14.6426 11.8799 14.6667 11.8184 14.6667 11.7435V9.875C14.1528 9.56944 13.7465 9.16319 13.4479 8.65625C13.1493 8.14931 13 7.59722 13 7C13 6.40278 13.1493 5.85069 13.4479 5.34375C13.7465 4.83681 14.1528 4.43056 14.6667 4.125V2.25646C14.6667 2.1816 14.6426 2.12014 14.5946 2.07208C14.5465 2.02403 14.4851 2 14.4102 2H1.58979C1.51493 2 1.45347 2.02403 1.40542 2.07208C1.35736 2.12014 1.33333 2.1816 1.33333 2.25646V4.125C1.84722 4.43056 2.25347 4.83681 2.55208 5.34375C2.85069 5.85069 3 6.40278 3 7C3 7.59722 2.85069 8.14931 2.55208 8.65625C2.25347 9.16319 1.84722 9.56944 1.33333 9.875V11.7435C1.33333 11.8184 1.35736 11.8799 1.40542 11.9279C1.45347 11.976 1.51493 12 1.58979 12Z" fill="#383838"/>
</svg>
