<svg width="26" height="25" viewBox="0 0 26 25" fill="none" xmlns="http://www.w3.org/2000/svg">
<g clip-path="url(#clip0_1_2241)">
<path d="M6.66594 3.39069C6.81571 4.54941 6.92626 5.68384 6.92626 6.85068" stroke="#F74F09" stroke-width="0.30375" stroke-linecap="round"/>
<path d="M7.68385 6.81888C7.68385 7.62122 7.57313 8.43074 7.50298 9.23047C7.42783 10.0872 7.41117 10.9841 7.10466 11.8111" stroke="#F74F09" stroke-width="1.13906" stroke-linecap="round"/>
<path d="M7.32337 7.43695C7.29755 8.44097 7.16607 9.4548 7.01715 10.4516C6.94958 10.9039 6.85483 11.3586 6.94391 11.8111" stroke="#F74F09" stroke-width="1.13906" stroke-linecap="round"/>
<path d="M6.68587 8.29269C6.68271 8.38568 6.65991 8.47719 6.64371 8.56917C6.56051 9.0414 6.49558 9.51282 6.4917 9.99021C6.48937 10.2778 6.54597 10.5303 6.596 10.8082C6.63798 11.0414 6.67743 11.2617 6.64151 11.4976C6.59102 11.8287 6.54819 12.1593 6.5261 12.4925" stroke="#F74F09" stroke-width="1.13906" stroke-linecap="round"/>
<path d="M6.59463 8.77838C6.44542 9.03884 6.26735 9.2884 6.11387 9.54731C6.05438 9.64767 6.00375 9.74639 5.98618 9.85653C5.97277 9.94049 5.95645 10.0231 5.927 10.1046C5.89139 10.2033 5.83491 10.2966 5.82748 10.4004C5.82282 10.4657 5.81946 10.5356 5.82748 10.6009C5.83254 10.642 5.8329 10.6827 5.79649 10.6173C5.74467 10.5241 5.72361 10.4261 5.69697 10.3274C5.67321 10.2395 5.63881 10.1547 5.61951 10.0659C5.61783 10.0582 5.65025 10.1503 5.65705 10.1706C5.7092 10.3257 5.71312 10.487 5.7195 10.6467C5.72738 10.8444 5.73271 11.0399 5.75753 11.2368C5.78912 11.4875 5.85139 11.7328 5.91668 11.9793C5.93585 12.0517 5.95485 12.1241 5.97585 12.1961C5.98871 12.2403 6.01246 12.2895 6.01246 12.3355C6.01246 12.3727 5.98261 12.3166 5.98148 12.3131C5.96753 12.2707 5.96293 12.2254 5.95612 12.182C5.93646 12.0563 5.90491 11.9303 5.87255 11.8064C5.79907 11.5252 5.73119 11.2333 5.61104 10.9619C5.55975 10.846 5.50309 10.7358 5.50589 10.6109C5.50838 10.4995 5.54726 10.3931 5.58899 10.2876C5.61603 10.2192 5.64547 10.1522 5.66503 10.0823C5.67376 10.0512 5.68556 10.144 5.69227 10.1754C5.72724 10.3394 5.75506 10.5042 5.79133 10.6679C5.88851 11.1068 6.00861 11.5422 6.11904 11.9789C6.18325 12.2329 6.19495 12.4939 6.27771 12.7449C6.32141 12.8774 6.38233 13.0079 6.45142 13.1334C6.47428 13.175 6.50002 13.2154 6.53124 13.2534C6.54566 13.271 6.60923 13.3239 6.58711 13.3488C6.53797 13.404 6.41963 13.2723 6.40401 13.246C6.3707 13.1897 6.36003 13.1256 6.32889 13.0679C6.26882 12.9565 6.24963 12.8099 6.12983 12.7274C6.03935 12.665 5.91441 12.595 5.78945 12.5877C5.72768 12.584 5.84333 12.6891 5.85283 12.7009C5.93045 12.7979 5.94861 12.9285 5.98148 13.0377C6.01507 13.1494 6.04814 13.2692 6.10401 13.3756C6.14074 13.4456 6.05332 13.3668 6.02842 13.3451" stroke="#F74F09" stroke-width="1.13906" stroke-linecap="round"/>
<path d="M6.40641 12.8053C6.39514 12.8146 6.38704 12.8222 6.37898 12.8338C6.3213 12.9164 6.27353 13.0041 6.22779 13.0911C6.15457 13.2304 6.08404 13.3723 6.0228 13.5152C6.01367 13.5365 5.94293 13.6481 5.99131 13.6721C6.05364 13.703 6.06036 13.7805 6.12968 13.808C6.15793 13.8192 6.16987 13.8197 6.20215 13.8133C6.25968 13.8019 6.31126 13.8443 6.3537 13.8708C6.38527 13.8905 6.41427 13.9053 6.43278 13.9347C6.4461 13.9559 6.45028 13.9776 6.47964 13.9893C6.49999 13.9974 6.54531 13.9896 6.57151 13.9948C6.60401 14.0013 6.62929 14.007 6.65351 14.0262C6.67015 14.0394 6.67523 14.0556 6.68317 14.073C6.68957 14.0869 6.70944 14.0828 6.7161 14.0947C6.73534 14.1291 6.76148 14.1557 6.77578 14.1046C6.78076 14.0868 6.78631 14.0717 6.80836 14.0581C6.83217 14.0435 6.9175 14.0236 6.88741 14.0236" stroke="#F74F09" stroke-width="1.13906" stroke-linecap="round"/>
<path d="M6.57089 6.42813C6.52615 6.5539 6.49829 6.68846 6.45925 6.81598C6.29137 7.36423 6.10204 7.91752 6.00504 8.48413C5.99828 8.52366 5.99149 8.56337 5.9891 8.60342C5.98694 8.63965 5.97849 8.71296 6.01462 8.70931C6.03213 8.70753 6.04252 8.68617 6.05034 8.67039C6.10495 8.56025 6.12265 8.37547 6.13646 8.27554C6.21951 7.67462 6.28609 7.06801 6.33995 6.46385C6.34882 6.36436 6.36999 6.26364 6.35654 6.16466C6.35192 6.13074 6.32064 6.22407 6.31189 6.25716C6.26963 6.41681 6.23785 6.57905 6.20408 6.74071C5.9288 8.05781 5.72174 9.38688 5.66504 10.7321C5.65872 10.8817 5.65374 11.0176 5.60891 11.1602C5.58471 11.2371 5.55357 11.3108 5.53362 11.3892C5.48729 11.5714 5.46366 11.7582 5.41305 11.9397C5.39177 12.0161 5.35167 12.1419 5.31164 11.9927C5.21991 11.6508 5.20126 11.2791 5.17767 10.928C5.1461 10.4581 5.163 9.98832 5.14705 9.5182C5.1433 9.40802 5.1381 9.29798 5.13621 9.18776C5.13587 9.1682 5.13538 9.14861 5.13557 9.12905C5.13567 9.11913 5.13994 9.14849 5.14067 9.1584C5.17896 9.67528 5.15521 10.1988 5.1445 10.7162C5.1339 11.2276 5.12429 11.7338 5.15087 12.2446C5.15527 12.3291 5.15853 12.4133 5.15853 12.4979C5.15853 12.5555 5.19119 12.3873 5.20956 12.3327C5.4395 11.649 5.72628 10.9767 6.01079 10.3143C6.12046 10.059 6.22406 9.77371 6.41012 9.56285" stroke="#F74F09" stroke-width="0.30375" stroke-linecap="round"/>
<path d="M5.40121 15.4153C5.08134 14.3512 4.84143 13.2661 4.6815 12.16C4.52154 11.0539 4.44158 9.96879 4.44158 8.90469C4.44158 6.44049 4.85476 4.3403 5.6811 2.60417C6.50746 0.868014 7.50706 -6.10352e-05 8.67994 -6.10352e-05C9.47964 -6.10352e-05 10.2493 0.461979 10.9891 1.38606C11.7288 2.31014 12.3985 3.65425 12.9983 5.41839C13.5981 3.65425 14.2678 2.31014 15.0075 1.38606C15.7472 0.461979 16.5169 -6.10352e-05 17.3166 -6.10352e-05C18.4895 -6.10352e-05 19.4891 0.868014 20.3155 2.60417C21.1419 4.3403 21.555 6.44049 21.555 8.90469C21.555 9.91278 21.475 10.9559 21.315 12.034C21.1552 13.1121 20.9152 14.2252 20.5954 15.3733C20.531 15.2321 20.455 15.1058 20.3673 14.9944C20.2794 14.8829 20.1955 14.7852 20.1155 14.7012C20.4088 13.6651 20.6287 12.664 20.7753 11.6979C20.9219 10.7319 20.9952 9.80078 20.9952 8.90469C20.9952 6.74852 20.6387 4.92136 19.9256 3.42322C19.2126 1.9251 18.3429 1.17604 17.3166 1.17604C16.5703 1.17604 15.8472 1.66608 15.1475 2.64617C14.4477 3.62625 13.7313 5.15237 12.9983 7.22455C12.2652 5.15237 11.5488 3.62625 10.8491 2.64617C10.1494 1.66608 9.42634 1.17604 8.67994 1.17604C7.65367 1.17604 6.78402 1.9251 6.07095 3.42322C5.35789 4.92136 5.00137 6.74852 5.00137 8.90469C5.00137 9.85679 5.07467 10.8229 5.22128 11.8029C5.36789 12.783 5.58115 13.7631 5.86104 14.7432C5.78107 14.8552 5.70111 14.9602 5.62112 15.0582C5.54115 15.1562 5.46785 15.2752 5.40121 15.4153Z" fill="#F74F09"/>
<path d="M17.9581 9.2707C17.616 7.97368 17.5312 6.64555 17.0149 5.37636C16.9484 5.21292 16.7737 4.73891 16.7421 4.90883C16.6421 5.44598 16.7087 6.01691 16.7538 6.55503C16.7878 6.96062 16.8349 7.3657 16.8867 7.77007C16.9051 7.91316 16.9679 8.33658 16.9067 8.20123C16.8654 8.10986 16.8262 7.87417 16.8174 7.82047C16.7276 7.2752 16.6774 6.72632 16.6139 6.17893C16.5361 5.5082 16.4524 4.83307 16.2293 4.1809C16.2002 4.09571 16.1575 3.87423 16.0012 4.01106C15.7211 4.25623 15.5855 4.6181 15.4802 4.93029C15.3841 5.21515 15.3684 5.52283 15.2144 5.79444C15.1922 5.83354 14.6236 7.0209 14.3394 6.72487C14.2525 6.63439 14.2465 6.49474 14.2324 6.38703C14.2009 6.14628 14.2207 5.87378 14.3171 5.64234C14.3785 5.49484 14.4707 5.35872 14.5605 5.22144C14.6705 5.05333 14.7347 4.87082 14.8381 4.70072C14.9624 4.49599 15.1571 4.32026 15.2697 4.11185C15.4164 3.84025 15.5067 3.57312 15.7048 3.31861C15.899 3.06907 15.9797 2.80202 16.1423 2.54403C16.2924 2.30585 16.5177 2.09215 16.7186 1.87958C16.8405 1.75056 17.0626 1.58023 17.2678 1.53802C17.3741 1.51614 17.5927 1.70402 17.6723 1.74613C17.9062 1.86983 18.0179 2.02075 18.1486 2.21181C18.2795 2.40305 18.4313 2.58447 18.5626 2.77547C18.7274 3.01525 18.7579 3.27842 18.8672 3.53324C18.9319 3.68392 18.994 3.84074 19.0472 3.99425C19.0516 4.00713 19.1338 4.21818 19.1753 4.12304C19.2482 3.956 19.1643 3.7841 19.0542 3.64336C18.8599 3.39506 18.6737 3.17255 18.4121 2.96211C18.3057 2.87652 18.1998 2.78893 18.0851 2.71014C17.9175 2.59492 17.795 2.54079 17.6794 2.73628C17.5021 3.03615 17.5459 3.41401 17.5347 3.73483C17.5189 4.1924 17.5077 4.64995 17.5265 5.1076C17.5513 5.70965 17.6698 6.29753 17.8523 6.88164C18.0243 7.43228 18.1588 7.96149 18.4733 8.4756C18.6436 8.75416 18.7307 9.01917 18.7837 9.32482C18.8003 9.4205 18.8684 9.70324 18.8684 9.60666" stroke="#F74F09" stroke-width="1.51875" stroke-linecap="round"/>
<path d="M16.8378 2.45071C16.8887 2.56284 17.0271 2.62513 17.1389 2.69803C17.3155 2.81321 17.4415 2.93196 17.5881 3.06384C17.742 3.20223 17.9717 3.26649 18.1397 3.39981C18.2911 3.51991 18.3037 3.41753 18.4208 3.2981C18.4891 3.22835 18.6926 3.11583 18.7383 3.25703C18.7509 3.29585 18.743 3.34123 18.743 3.38114C18.743 3.39677 18.7595 3.3519 18.7736 3.34103C18.8098 3.31314 18.8584 3.30235 18.9006 3.28222C18.94 3.26349 19.001 3.19893 19.05 3.20756C19.1426 3.2239 19.1809 3.47322 19.1958 3.53233C19.2846 3.88482 19.2409 4.25448 19.2393 4.61206C19.2354 5.48285 19.1354 6.34926 19.0653 7.21763C19.0236 7.73281 18.9991 8.25554 18.9053 8.76677C18.878 8.91569 18.8499 8.82548 18.8277 8.76677" stroke="#F74F09" stroke-width="1.51875" stroke-linecap="round"/>
<path d="M19.2481 7.94488C19.3055 7.72999 19.3479 7.51275 19.3933 7.29611C19.4376 7.08412 19.4615 6.8443 19.5384 6.6355C19.5606 6.57528 19.6081 6.66496 19.6112 6.67096C19.7217 6.88561 19.7677 7.12731 19.8176 7.35419C19.859 7.54256 19.89 7.73224 19.9313 7.9206C19.9318 7.92277 19.9809 8.19064 20.0132 8.18971C20.0221 8.18944 20.0218 8.17717 20.0239 8.17035C20.0382 8.12535 20.05 8.04152 20.0549 8.00363C20.0804 7.80955 20.0835 7.61606 20.0595 7.42179C20.0312 7.1927 19.9627 6.96865 19.9309 6.74019C19.9104 6.59303 19.9072 6.44454 19.8957 6.29684C19.8827 6.12965 19.8654 5.95978 19.8287 5.79474" stroke="#F74F09" stroke-width="1.51875" stroke-linecap="round"/>
<path d="M19.5683 3.65472C19.8196 4.3361 19.9306 5.04758 20.1946 5.72579C20.2035 5.74849 20.2765 5.96875 20.2572 5.96875" stroke="#F74F09" stroke-width="1.51875" stroke-linecap="round"/>
<path d="M16.9572 7.28953C16.9518 7.30213 16.9396 7.32884 16.9381 7.34101C16.9047 7.59995 16.9238 7.88142 16.9412 8.13758C16.9939 8.90808 17.1628 9.65321 17.5336 10.3687C17.5853 10.4684 17.6585 10.587 17.7239 10.6851C17.7475 10.7206 17.798 10.771 17.8111 10.8125C17.8201 10.841 17.7526 10.7763 17.7282 10.7543C17.5809 10.6217 17.482 10.4615 17.3804 10.3058C17.0645 9.82149 16.7486 9.34606 16.3574 8.89619C16.0879 8.58626 15.7967 8.28796 15.511 7.98739C15.4739 7.94837 15.4256 7.8974 15.3855 7.85702C15.3786 7.85003 15.3753 7.83495 15.3642 7.83634C15.3544 7.83758 15.3712 7.85113 15.3754 7.85827C15.3897 7.88292 15.405 7.90714 15.4195 7.9317C15.7255 8.45024 15.9756 8.98347 16.2032 9.52655C16.3264 9.82024 16.4383 10.1186 16.6004 10.4008C16.6809 10.5408 16.5017 10.3189 16.4978 10.3147C15.7975 9.555 15.1613 8.75375 14.5948 7.92704C14.5831 7.90993 14.5503 7.85755 14.5619 7.87474C14.6257 7.96914 14.6789 8.06934 14.7283 8.16881C14.8266 8.36667 14.9026 8.57079 14.9989 8.7692C15.0356 8.84469 14.9996 8.80437 14.9644 8.76286C14.8055 8.57571 14.6785 8.36728 14.5794 8.15615C14.5102 8.00867 14.4564 7.85686 14.3885 7.70893C14.3453 7.61467 14.3082 7.52235 14.2966 7.42201C14.2904 7.36881 14.2828 7.30766 14.3019 7.25537C14.3147 7.22014 14.4263 7.24312 14.4587 7.24144C14.6515 7.23142 14.8374 7.17812 15.0239 7.1427C15.2517 7.09949 15.4808 7.07363 15.7151 7.0925C15.9912 7.11473 16.2619 7.1862 16.4797 7.32667C16.9316 7.61811 17.1254 8.07535 17.3102 8.49621C17.4815 8.88606 17.6295 9.28282 17.9015 9.63835C18.0688 9.85705 18.2882 10.0895 18.5438 10.2497C18.5861 10.2762 18.6677 10.3182 18.7288 10.3155C18.8799 10.3088 19.0084 10.1661 19.084 10.0839C19.4055 9.73438 19.5755 9.31482 19.8316 8.93628C19.8545 8.90243 19.9012 8.82578 19.9539 8.79958C20.0531 8.75025 20.0536 8.96287 20.0538 8.96791C20.0782 9.42277 19.9504 9.8803 19.8832 10.3299C19.8529 10.5321 19.8331 10.7347 19.8284 10.9383C19.8279 10.9585 19.8393 11.0187 19.7997 11.0109" stroke="#F74F09" stroke-width="1.51875" stroke-linecap="round"/>
<path d="M20.269 7.67691C20.3251 7.8155 20.3137 7.98589 20.3105 8.12751C20.3029 8.46249 20.2458 8.7956 20.2313 9.13042C20.2189 9.41517 20.2327 9.70209 20.1754 9.98438C20.1355 10.1811 20.0563 10.3699 19.9883 10.5611C19.9215 10.7488 19.8816 10.9394 19.7883 11.1206C19.721 11.2514 19.6596 11.3764 19.6288 11.5159C19.6255 11.531 19.6301 11.5893 19.599 11.5729" stroke="#F74F09" stroke-width="1.51875" stroke-linecap="round"/>
<path d="M14.7929 8.87952C14.8359 8.97807 14.956 9.07047 15.0272 9.15382C15.3414 9.52193 15.6328 9.90008 15.9165 10.2832C16.091 10.5189 16.2661 10.7668 16.5104 10.962C16.6834 11.1003 16.8701 11.2309 17.0328 11.3771C17.1894 11.5177 17.3336 11.6678 17.4821 11.8138C17.636 11.9651 17.805 12.1059 17.9543 12.2605C18.1017 12.4133 18.2228 12.5862 18.3569 12.7467C18.4955 12.9128 18.6572 13.0774 18.774 13.254C18.8213 13.3256 18.8541 13.3992 18.9229 13.4606C18.9581 13.4919 19.0818 13.6291 19.1348 13.6277C19.1665 13.6269 19.2004 13.5874 19.2147 13.572C19.2986 13.4814 19.3483 13.3737 19.3824 13.2655C19.4975 12.9001 19.5201 12.5038 19.5598 12.1294C19.6055 11.698 19.5876 11.2679 19.6748 10.8405C19.6926 10.7533 19.7401 10.5955 19.8122 10.7622C19.9338 11.043 19.9229 11.3367 19.8927 11.6283C19.8583 11.9607 19.8441 12.2899 19.8376 12.6232C19.8353 12.7418 19.824 12.8605 19.7971 12.9773C19.769 13.0988 19.6927 13.1371 19.5598 13.0464C19.3486 12.9025 19.1776 12.7019 18.9979 12.5339C18.8268 12.3738 18.6717 12.2078 18.5397 12.0256C18.4064 11.8416 18.1959 11.6074 18.3005 11.3848C18.351 11.2773 18.4261 11.1769 18.51 11.0836C18.7075 10.8638 19.1105 10.5242 19.366 10.3466C19.4756 10.2705 19.721 10.1035 19.9133 10.0997C19.9794 10.0984 20.1308 10.186 20.1712 10.216C20.4878 10.4511 20.5408 10.8194 20.5042 11.1441C20.4837 11.3261 20.4123 11.4905 20.3165 11.6548C20.1438 11.951 19.938 12.2279 19.7196 12.5046C19.5527 12.7159 19.3458 12.9181 19.2002 13.1387C19.1028 13.2863 19.0297 13.4483 18.9471 13.6018C18.9377 13.6193 18.9251 13.6668 18.9108 13.6811C18.9105 13.6813 18.7915 13.5632 18.7812 13.5533C18.7538 13.5266 18.6179 13.3587 18.5851 13.3587" stroke="#F74F09" stroke-width="1.51875" stroke-linecap="round"/>
<path d="M14.1329 5.95554C14.1187 5.97807 14.1077 5.99885 14.0956 6.02307C13.9833 6.24728 13.8696 6.4727 13.7801 6.70343C13.758 6.76045 13.7504 6.80968 13.7415 6.86707C13.7397 6.87859 13.7388 6.91869 13.7192 6.92312C13.6893 6.92988 13.6422 6.87375 13.6336 6.86498C13.5527 6.78279 13.4871 6.67854 13.3844 6.61149C13.3475 6.58748 13.3402 6.60273 13.3492 6.63448C13.3609 6.67544 13.4269 6.80729 13.4405 6.83572C13.5112 6.98369 13.5797 7.13255 13.6397 7.28349C13.6475 7.30313 13.6773 7.36573 13.6292 7.31413C13.5252 7.20265 13.4447 7.0771 13.3594 6.95655C13.2718 6.83295 13.1747 6.7126 13.0948 6.58574C13.0709 6.54793 13.072 6.54678 13.0553 6.51575C13.0517 6.50911 13.0377 6.48807 13.0636 6.52968C13.2201 6.78072 13.3777 7.03883 13.4914 7.30439C13.5526 7.44727 13.6072 7.61885 13.6138 7.77095C13.622 7.958 13.525 7.40331 13.4809 7.21942C13.4373 7.03776 13.3745 6.8598 13.322 6.67974C13.3178 6.66512 13.2985 6.59681 13.2931 6.57389C13.2914 6.56658 13.2833 6.54779 13.2913 6.55161C13.308 6.55953 13.3335 6.62484 13.3361 6.62996C13.3918 6.73868 13.4451 6.84812 13.4813 6.96212C13.5258 7.10223 13.5403 7.24465 13.5603 7.3876C13.5887 7.59048 13.6824 7.75981 13.7766 7.94781C13.8746 8.14337 13.9917 8.33611 14.1031 8.52718C14.1783 8.65626 14.2386 8.80487 14.3541 8.91368" stroke="#F74F09" stroke-width="0.30375" stroke-linecap="round"/>
<path d="M16.5134 8.789C16.5588 8.56803 16.6551 8.36377 16.7311 8.14928C16.8245 7.88567 16.8886 7.61012 16.9579 7.34214C17.0588 6.95198 17.1228 6.55648 17.2374 6.16851C17.2816 6.0189 17.3344 5.87093 17.3813 5.72189" stroke="#F74F09" stroke-width="0.30375" stroke-linecap="round"/>
<path d="M14.4988 9.62607C14.5627 9.93915 14.6651 10.2371 14.8476 10.5202C14.9374 10.6595 15.0249 10.8022 15.1013 10.9465C15.2554 11.2376 15.6565 11.3971 15.8857 11.6444C16.1296 11.9077 16.3062 12.1924 16.508 12.4743C16.5686 12.5589 16.6514 12.6245 16.7318 12.6976C16.8553 12.8097 16.9735 12.9141 17.1176 13.0094C17.2059 13.0677 17.2798 13.1395 17.3578 13.2061C17.4096 13.2504 17.4484 13.3118 17.5027 13.3516C17.5345 13.3748 17.5711 13.3937 17.605 13.4147C17.6196 13.4238 17.6524 13.4531 17.6519 13.4384C17.6486 13.3381 17.5309 13.2342 17.4651 13.1565C17.2977 12.9592 17.0734 12.8 16.9471 12.5837C16.9064 12.5139 16.8506 12.4565 16.7979 12.3931C16.7516 12.3374 16.7247 12.2734 16.6786 12.2172C16.6094 12.1331 16.525 12.0568 16.4484 11.9771C16.3508 11.8755 16.2707 11.7775 16.1485 11.694C16.1252 11.6781 15.9183 11.5368 15.9183 11.6208C15.9183 11.6345 15.9241 11.6438 15.9311 11.6568C15.9725 11.734 16.0187 11.8096 16.0597 11.8869C16.0895 11.9428 16.1162 12.0099 16.1329 12.0695C16.1382 12.0885 16.1321 12.1066 16.1443 12.1242C16.1723 12.1646 16.2138 12.2013 16.1528 12.1372C16.0907 12.072 15.985 12.0362 15.9247 11.9686C15.8601 11.8963 15.8388 11.8105 15.7769 11.7369C15.7364 11.6886 15.7114 11.6317 15.6924 11.5757C15.679 11.536 15.659 11.4162 15.6014 11.402C15.5487 11.389 15.524 11.3408 15.5034 11.3039C15.482 11.2655 15.4722 11.2176 15.4451 11.1821C15.3048 10.9982 15.1259 10.8394 15.0004 10.6465C14.9508 10.5702 14.914 10.4942 14.8817 10.4131C14.8675 10.3774 14.8244 10.3642 14.8156 10.3252C14.7714 10.1288 14.6105 9.98281 14.4817 9.81775C14.4317 9.75366 14.3844 9.71268 14.3204 9.65594C14.2348 9.57996 14.0895 9.49055 14.0895 9.37912C14.0895 9.27722 14.0356 9.18279 13.9936 9.08764C13.9619 9.01583 13.9552 8.96258 13.9488 8.88976C13.9448 8.84363 13.897 8.8026 13.8799 8.75894C13.8218 8.6102 13.7498 8.47267 13.6682 8.33047C13.5984 8.20893 13.5188 8.08038 13.4728 7.95273C13.4436 7.87151 13.4245 7.77153 13.4245 7.68776C13.4245 7.60988 13.3851 7.56976 13.3563 7.49943C13.3249 7.42303 13.271 7.33279 13.271 7.25137C13.271 7.19935 13.2199 7.16101 13.2199 7.11438C13.2199 7.05968 13.2199 7.00499 13.2199 6.95031C13.2199 6.92698 13.2028 6.86326 13.2227 6.88039C13.2708 6.92176 13.3186 7.0073 13.3478 7.0501C13.4976 7.27002 13.6283 7.49696 13.7677 7.72101C13.8952 7.926 14.0338 8.12637 14.1634 8.33047C14.4141 8.72512 14.6372 9.13014 14.8796 9.52796C15.1709 10.0061 15.4677 10.4808 15.8452 10.92C16.5519 11.7422 17.2687 12.5569 17.9901 13.3708" stroke="#F74F09" stroke-width="0.30375" stroke-linecap="round"/>
<path d="M19.1288 14.2201C19.1293 14.2261 19.1313 14.2321 19.1326 14.238C19.1431 14.2869 19.1523 14.336 19.1639 14.3849C19.1733 14.4247 19.1832 14.4652 19.2011 14.5033C19.2077 14.5173 19.2158 14.5343 19.2314 14.5439C19.2679 14.5665 19.3109 14.5006 19.3231 14.4868C19.3671 14.4368 19.4073 14.3847 19.4551 14.3368C19.4987 14.293 19.5486 14.2536 19.5999 14.2155C19.6743 14.1604 19.752 14.1053 19.8325 14.0557C19.8335 14.0552 19.8657 14.0332 19.8546 14.0522C19.83 14.0947 19.788 14.1344 19.7542 14.172C19.6994 14.2329 19.6432 14.2929 19.5949 14.3572C19.569 14.3917 19.5336 14.4356 19.5225 14.4762C19.5215 14.4799 19.5205 14.4853 19.5244 14.4875C19.529 14.4901 19.536 14.4885 19.5412 14.4868C19.5551 14.4821 19.5679 14.4756 19.5805 14.4689C19.6549 14.4297 19.7202 14.3803 19.7839 14.3309C19.8487 14.2807 19.9117 14.2287 19.9741 14.1766C20.0159 14.1418 20.0577 14.1067 20.0938 14.068C20.1274 14.0321 20.1659 13.9885 20.1765 13.9434C20.1789 13.933 20.1758 13.9217 20.179 13.9115C20.1847 13.8935 20.2 13.8782 20.2064 13.8601C20.2176 13.8282 20.2208 13.7857 20.2595 13.7661C20.2727 13.7594 20.2905 13.7508 20.3064 13.7492C20.3178 13.748 20.3214 13.7501 20.3228 13.7605C20.3282 13.8017 20.3196 13.8459 20.3159 13.8869C20.3106 13.9447 20.3056 14.0024 20.3006 14.0602C20.2983 14.0872 20.2965 14.1155 20.2808 14.1401C20.2707 14.1559 20.2491 14.1631 20.2401 14.1793C20.2303 14.1973 20.2138 14.2077 20.1984 14.2224C20.1887 14.2316 20.1833 14.2426 20.1758 14.2529C20.1683 14.2632 20.1546 14.2683 20.1438 14.2761C20.129 14.2867 20.1152 14.3046 20.096 14.3101C20.0773 14.3155 20.0593 14.3199 20.0394 14.3212C20.0157 14.3227 19.997 14.3311 19.9734 14.3338C19.9586 14.3355 19.9486 14.3415 19.9351 14.3454C19.9184 14.3503 19.9142 14.3315 19.9091 14.3231" stroke="#F74F09" stroke-width="0.30375" stroke-linecap="round"/>
<path d="M18.6205 14.2339C18.6589 14.2644 18.7075 14.288 18.7507 14.3137C18.8133 14.3509 18.8734 14.3913 18.9374 14.4269C18.9628 14.441 18.9897 14.45 19.018 14.4596C19.0425 14.4679 19.0634 14.4832 19.0843 14.4961C19.1525 14.5382 19.2076 14.5913 19.2777 14.6318C19.3097 14.6503 19.3426 14.6678 19.3747 14.6861C19.3779 14.6879 19.3942 14.7013 19.3988 14.6995" stroke="#F74F09" stroke-width="0.30375" stroke-linecap="round"/>
<path d="M17.59 13.5842C17.7334 13.6776 17.8934 13.7539 18.0472 13.8358C18.0873 13.8572 18.124 13.878 18.1608 13.9032C18.2108 13.9375 18.2518 13.9798 18.2973 14.0177C18.3346 14.0487 18.3729 14.0806 18.4081 14.1131C18.4466 14.1487 18.4891 14.1815 18.5304 14.2149C18.5633 14.2416 18.6015 14.2666 18.6305 14.2959C18.6468 14.3122 18.6673 14.3225 18.6883 14.3346C18.7094 14.3466 18.7296 14.3599 18.7507 14.3722C18.7998 14.4009 18.848 14.4315 18.8951 14.4622C18.9617 14.5056 19.0331 14.5426 19.1024 14.583C19.1295 14.5988 19.1579 14.6131 19.1845 14.6294C19.2247 14.654 19.2705 14.6713 19.3105 14.6965C19.3435 14.7173 19.3889 14.7343 19.4165 14.7561" stroke="#F74F09" stroke-width="0.30375" stroke-linecap="round"/>
<path d="M16.3896 12.5145C16.398 12.5181 16.4024 12.5215 16.4102 12.527C16.4693 12.5683 16.5293 12.6091 16.5859 12.6526C16.6031 12.6658 16.6251 12.6804 16.6396 12.696C16.6876 12.7479 16.7399 12.7984 16.7853 12.8518C16.8118 12.883 16.8319 12.9168 16.8597 12.9474C16.8841 12.9743 16.9086 13 16.9363 13.0249C16.9794 13.0636 17.0222 13.1023 17.0669 13.1399C17.1744 13.2303 17.2878 13.3151 17.401 13.4009C17.4665 13.4505 17.5306 13.5013 17.596 13.551C17.6596 13.5993 17.7204 13.6499 17.788 13.6948" stroke="#F74F09" stroke-width="0.30375" stroke-linecap="round"/>
<path d="M17.6208 13.4848C17.6797 13.5438 17.7447 13.6002 17.8126 13.6528C17.8296 13.666 17.8509 13.6767 17.8665 13.6909C17.8881 13.7107 17.9224 13.7213 17.9457 13.7409C17.9768 13.7672 18.0084 13.7904 18.0365 13.8188C18.0604 13.8431 18.0932 13.8573 18.1099 13.8865C18.1218 13.9073 18.1233 13.9297 18.137 13.9503C18.1621 13.9876 18.28 14.0751 18.2393 14.0478C18.2127 14.03 18.2073 14.0021 18.1831 13.9828C18.1578 13.9628 18.1344 13.9399 18.1084 13.9209C18.0928 13.9095 18.0735 13.9023 18.0567 13.8922C18.0413 13.8831 18.0287 13.8718 18.0144 13.8617C17.988 13.8431 17.9579 13.8294 17.9322 13.8095C17.9149 13.7961 17.8948 13.7878 17.8762 13.7761C17.8507 13.76 17.8301 13.7381 17.8042 13.7216C17.7659 13.697 17.7382 13.6613 17.703 13.6334" stroke="#F74F09" stroke-width="0.30375" stroke-linecap="round"/>
<path d="M15.1074 9.41879C15.0705 9.49291 15.0579 9.57603 15.0444 9.65414C15.0167 9.8131 14.9974 9.97986 15.0385 10.1387C15.0531 10.1949 15.0898 10.2499 15.0913 10.3084C15.0944 10.4261 15.096 10.5439 15.1079 10.6612C15.1167 10.749 15.1774 10.8424 15.2242 10.92C15.2596 10.9787 15.3026 11.0343 15.3369 11.0935C15.3895 11.1842 15.4301 11.2612 15.5181 11.3356" stroke="#F74F09" stroke-width="0.30375" stroke-linecap="round"/>
<path d="M14.3731 9.55936C14.3736 9.57224 14.3734 9.58595 14.3812 9.59769C14.4442 9.69246 14.5207 9.78111 14.5816 9.87706C14.623 9.94243 14.6431 10.0055 14.671 10.0741C14.691 10.1229 14.7105 10.1694 14.7256 10.2193C14.7458 10.286 14.774 10.3514 14.8008 10.4166C14.8185 10.4599 14.8345 10.5008 14.8585 10.5423C14.8903 10.5972 14.9318 10.6205 14.977 10.6647" stroke="#F74F09" stroke-width="0.30375" stroke-linecap="round"/>
<path d="M14.6355 9.19531C14.6355 9.30011 14.6286 9.4033 14.6153 9.50769C14.6037 9.59948 14.6086 9.68791 14.5348 9.76326C14.4869 9.81223 14.4266 9.81717 14.3514 9.82894C14.3388 9.8309 14.2864 9.82867 14.3022 9.84935C14.321 9.87391 14.3508 9.89197 14.3676 9.91767C14.4023 9.97054 14.4543 10.0156 14.4543 10.0761C14.4543 10.1199 14.4456 10.1632 14.4744 10.2021C14.497 10.2325 14.5007 10.2803 14.5393 10.3019C14.5642 10.3159 14.5898 10.327 14.6109 10.3454C14.6289 10.3612 14.6304 10.3854 14.6511 10.4022C14.6823 10.4274 14.7104 10.4509 14.7372 10.4794C14.7727 10.517 14.8377 10.5646 14.8468 10.6134C14.8537 10.6502 14.832 10.6985 14.8519 10.7332C14.8789 10.7804 14.9712 10.8029 15.0129 10.8455C15.0793 10.9132 15.1107 10.9715 15.1432 11.0518C15.1651 11.106 15.1956 11.1491 15.2394 11.1938C15.2653 11.2203 15.2847 11.2498 15.3121 11.2754C15.345 11.3064 15.4056 11.3294 15.4194 11.3704C15.4275 11.3946 15.4631 11.4071 15.4854 11.4241C15.5348 11.4617 15.5258 11.5217 15.5559 11.5683C15.5767 11.6006 15.5923 11.6288 15.6073 11.6628C15.6198 11.6911 15.6565 11.6998 15.6822 11.7192C15.7707 11.7855 15.7968 11.875 15.8433 11.9623C15.8705 12.0136 15.9189 12.014 15.9573 12.0502C15.9938 12.0845 16.0168 12.1336 16.0401 12.174C16.0776 12.2388 16.1126 12.2687 16.1861 12.3062C16.2173 12.3222 16.2576 12.3404 16.2912 12.3532C16.3423 12.3728 16.3465 12.3749 16.3465 12.422" stroke="#F74F09" stroke-width="0.30375" stroke-linecap="round"/>
<path d="M13.4449 7.4462C13.4105 7.51073 13.3955 7.56407 13.3955 7.63404C13.3955 7.68049 13.3955 7.72694 13.3955 7.7734C13.3955 7.79294 13.3923 7.81452 13.3975 7.83376C13.4012 7.84719 13.4123 7.86031 13.419 7.87297C13.4496 7.9305 13.4629 7.99222 13.4629 8.05449C13.4629 8.10866 13.4863 8.15458 13.5036 8.20592C13.5316 8.28933 13.5944 8.3602 13.6216 8.44462C13.6359 8.48934 13.6411 8.53585 13.647 8.58162C13.6533 8.6306 13.6643 8.67938 13.6734 8.72808C13.6761 8.74228 13.6954 8.75601 13.7054 8.76729C13.7298 8.79501 13.7509 8.82099 13.7578 8.85477C13.7668 8.89968 13.7757 8.94346 13.7912 8.9874C13.7958 9.00059 13.8041 9.01422 13.8041 9.02817" stroke="#F74F09" stroke-width="0.30375" stroke-linecap="round"/>
<path d="M13.873 8.91068C13.8557 8.95691 13.8268 8.99319 13.8565 9.04074C13.8716 9.065 13.8999 9.08778 13.8999 9.11595C13.8999 9.13484 13.9042 9.13812 13.9186 9.15416C13.9412 9.17921 13.9588 9.20521 13.9839 9.22878C14.0301 9.272 14.0747 9.31671 14.1127 9.36476C14.1615 9.42669 14.1889 9.49412 14.2314 9.55855C14.2322 9.55973 14.2666 9.61542 14.2658 9.61517C14.2404 9.60732 14.2059 9.55926 14.1933 9.54509C14.1361 9.4813 14.0915 9.41154 14.0393 9.34536C14.029 9.33222 14.0174 9.31851 14.0032 9.30776C13.9823 9.29202 14.0188 9.35172 14.0276 9.37347C14.0439 9.41379 14.0697 9.44744 14.0974 9.48314C14.1427 9.54136 14.1868 9.60231 14.2267 9.66288C14.2774 9.73997 14.3266 9.81536 14.3659 9.89644C14.3745 9.91435 14.3769 9.9348 14.3878 9.95148C14.3964 9.96455 14.4028 9.97562 14.4028 9.99028" stroke="#F74F09" stroke-width="0.30375" stroke-linecap="round"/>
<path d="M14.4098 9.53415C14.3791 9.54312 14.3508 9.56037 14.3217 9.57216C14.2966 9.58228 14.2699 9.58976 14.2456 9.60106C14.2223 9.61189 14.1969 9.61995 14.1738 9.63115C14.1452 9.64494 14.1612 9.67758 14.1748 9.69289C14.2067 9.72902 14.2432 9.76289 14.2813 9.79424C14.296 9.80631 14.3019 9.81864 14.3105 9.83423C14.3326 9.87427 14.3526 9.91608 14.3803 9.95399C14.4085 9.99255 14.4397 10.0401 14.4412 10.0856C14.4413 10.0901 14.445 10.1109 14.4384 10.0965C14.4195 10.0547 14.4024 10.0082 14.3714 9.97082C14.3558 9.95203 14.3197 9.94383 14.3107 9.92113C14.3057 9.90837 14.3038 9.89338 14.2965 9.88134C14.2943 9.87769 14.2978 9.89533 14.2985 9.89658C14.3215 9.93814 14.3842 9.95735 14.4165 9.99496C14.4799 10.0687 14.5173 10.1606 14.5564 10.2434C14.5616 10.2542 14.571 10.2675 14.5714 10.2796C14.5721 10.2996 14.5689 10.3204 14.5734 10.3402C14.5823 10.3787 14.6121 10.4143 14.6323 10.4494C14.6346 10.4536 14.6369 10.4627 14.6418 10.4659C14.6515 10.4722 14.6627 10.4722 14.6704 10.4811C14.6917 10.5056 14.7138 10.539 14.7241 10.5676C14.7351 10.5984 14.7765 10.6213 14.8049 10.6423" stroke="#F74F09" stroke-width="0.30375" stroke-linecap="round"/>
<path d="M14.8178 10.7027C14.8636 10.7506 14.9071 10.7983 14.9425 10.8516C14.9574 10.874 14.9786 10.9007 14.9839 10.9264C14.987 10.9414 14.9867 10.9592 15.0014 10.9697C15.0522 11.0062 15.0787 11.0459 15.1096 11.0929C15.1249 11.1159 15.1372 11.1492 15.1635 11.1659" stroke="#F74F09" stroke-width="0.30375" stroke-linecap="round"/>
<path d="M15.2004 11.0662C15.1913 11.1398 15.1983 11.2109 15.2635 11.2687C15.3016 11.3025 15.3533 11.3287 15.3843 11.3671C15.3949 11.3802 15.4042 11.3917 15.4122 11.4059C15.4235 11.4261 15.4245 11.4485 15.4349 11.468C15.4428 11.483 15.4554 11.5006 15.4723 11.51C15.5168 11.5347 15.5396 11.5773 15.5576 11.6165C15.5926 11.6925 15.6335 11.7696 15.7073 11.8267C15.7555 11.864 15.7932 11.9052 15.8333 11.948C15.8493 11.9652 15.86 11.9871 15.8739 12.0057C15.8821 12.0165 15.8869 12.0341 15.9019 12.0405C15.9117 12.0447 15.9223 12.0476 15.9323 12.0516C15.9856 12.0727 16.0391 12.0964 16.0837 12.1294C16.1312 12.1645 16.1852 12.2038 16.2222 12.2459C16.2432 12.27 16.2814 12.2965 16.291 12.3251C16.2967 12.3421 16.3043 12.359 16.3149 12.3746C16.3216 12.3843 16.329 12.3936 16.3359 12.4031C16.3868 12.4738 16.2451 12.257 16.1972 12.185C16.1639 12.1348 16.12 12.0695 16.0805 12.0211C16.0223 11.9498 15.9516 11.8853 15.8849 11.8192C15.8263 11.7611 15.7683 11.7023 15.7123 11.6426C15.6349 11.5601 15.568 11.4661 15.4773 11.3922C15.4449 11.3658 15.3981 11.363 15.3596 11.3449C15.3157 11.3244 15.3082 11.3573 15.3082 11.3869C15.3082 11.4066 15.3277 11.415 15.3421 11.4296C15.3566 11.4443 15.3843 11.4703 15.405 11.4791C15.4237 11.487 15.4374 11.493 15.4528 11.5052C15.4749 11.5227 15.4979 11.5352 15.5207 11.5508C15.5364 11.5615 15.5592 11.5855 15.5676 11.5999C15.5793 11.6197 15.5702 11.6194 15.5526 11.6058C15.5326 11.5902 15.5092 11.5771 15.4918 11.5595C15.4667 11.5341 15.4512 11.5073 15.4289 11.4807C15.4153 11.4644 15.415 11.4683 15.4189 11.4862C15.4237 11.508 15.4335 11.5277 15.4454 11.5476C15.4546 11.5631 15.4663 11.5802 15.4698 11.5971" stroke="#F74F09" stroke-width="0.30375" stroke-linecap="round"/>
<path d="M15.6718 11.7788C15.7035 11.8176 15.7424 11.8515 15.7766 11.8889C15.8134 11.9292 15.838 11.9772 15.8664 12.0213C15.8848 12.0499 15.906 12.0942 15.9382 12.1157C15.9474 12.1219 15.9569 12.1258 15.9666 12.1336C15.9938 12.1551 16.0266 12.1714 16.054 12.1925C16.102 12.2297 16.15 12.2671 16.1991 12.3034C16.2373 12.3317 16.2625 12.3705 16.276 12.4101C16.2841 12.434 16.2852 12.4643 16.3104 12.4811C16.34 12.501 16.3608 12.5299 16.3812 12.556C16.3853 12.5612 16.3928 12.5584 16.3992 12.5591C16.417 12.5612 16.4358 12.5692 16.4531 12.5734" stroke="#F74F09" stroke-width="0.30375" stroke-linecap="round"/>
<path d="M16.4819 12.5414C16.5012 12.6105 16.537 12.685 16.6066 12.7328C16.6635 12.7719 16.7174 12.8178 16.7592 12.8676C16.7667 12.8765 16.7697 12.8909 16.7782 12.8977" stroke="#F74F09" stroke-width="0.30375" stroke-linecap="round"/>
<path d="M10.9935 5.95394C10.8508 5.9873 10.6931 5.99343 10.5655 6.05404C10.0565 6.29568 9.70726 6.71379 9.39926 7.09594C8.82612 7.80704 8.32254 8.60623 8.21858 9.45703C8.20631 9.55745 8.19501 9.85154 8.24547 9.75894C8.31766 9.62646 8.30762 9.61083 8.29509 9.41109C8.26441 8.92241 8.15455 8.33784 8.06557 7.87202C7.86279 6.81032 7.60573 5.76683 7.23226 4.73483C7.14377 4.49027 6.9452 3.75358 6.93866 4.00796C6.90855 5.17839 7.02444 6.35107 6.95933 7.52091C6.93289 7.99604 6.86659 8.45923 6.73808 8.92379C6.72253 8.97996 6.60978 9.33523 6.58092 9.41931C6.55998 9.48038 6.57347 9.63418 6.5065 9.5998C6.47925 9.5858 6.49966 9.54842 6.50029 9.52266C6.50243 9.43456 6.50845 9.34649 6.51477 9.2585C6.53765 8.93995 6.57612 8.51348 6.60988 8.20184C6.65919 7.7467 6.74626 7.29281 6.77943 6.83668C6.78832 6.71435 6.78772 6.59164 6.78772 6.46915C6.78772 6.36395 6.80023 6.67942 6.81252 6.78419C6.82461 6.88741 6.80311 7.43677 6.93659 7.48973" stroke="#F74F09" stroke-width="1.13906" stroke-linecap="round"/>
<path d="M10.1759 7.22391C9.73818 7.62915 9.45253 8.16517 9.18341 8.64813C9.02586 8.93084 8.90193 9.19727 8.83602 9.49804" stroke="#F74F09" stroke-width="1.13906" stroke-linecap="round"/>
<path d="M7.50297 2.84432C7.44973 2.98162 7.4733 3.15243 7.46711 3.29094C7.44682 3.74508 7.46057 4.19727 7.45915 4.65129C7.45872 4.78464 7.45115 4.91744 7.44121 5.05048C7.44096 5.05386 7.43222 5.23852 7.45018 5.21173C7.53183 5.08993 7.57376 4.92746 7.61653 4.79675C7.72005 4.4804 7.77853 4.15928 7.81377 3.83398C7.85603 3.44382 7.84608 3.04334 7.96517 2.66094C8.04042 2.41934 8.18633 2.20424 8.32378 1.98273C8.3609 1.92291 8.57893 1.64125 8.35965 1.64125C8.22792 1.64125 8.0689 1.76995 7.97115 1.83096C7.84127 1.91204 7.72677 2.02515 7.61056 2.11868C7.43637 2.25888 7.32564 2.43578 7.17624 2.59138C6.98832 2.78712 6.87419 3.00478 6.74989 3.22849C6.61136 3.4778 6.45197 3.71657 6.31956 3.96834C6.19156 4.21173 6.13338 4.47196 6.03268 4.72245C5.77884 5.3538 5.60672 6.04129 5.55253 6.70333C5.52847 6.99744 5.46853 7.28952 5.42303 7.5823C5.35839 7.99843 5.41746 8.40042 5.4868 8.81542C5.55269 9.20993 5.59663 9.61669 5.77566 9.9916C5.87444 10.1985 5.77739 9.93883 5.77965 9.8604C5.79039 9.48845 6.09347 9.16729 6.32454 8.86127C6.79086 8.24372 7.17998 7.61302 7.49501 6.93729C7.86654 6.14036 8.20234 5.33799 8.47519 4.51614C8.6168 4.08966 8.84273 3.65852 8.89757 3.21741C8.93608 2.90748 8.82347 2.6142 8.75412 2.31157C8.69288 2.04427 8.63602 1.78956 8.81588 1.54324C8.85059 1.49572 8.95842 1.33856 9.05197 1.41518C9.13467 1.48293 9.14312 1.59685 9.21035 1.67445C9.42565 1.92295 9.69033 2.13586 9.88773 2.39692C9.99491 2.53871 10.0814 2.70312 10.1587 2.85698C10.2236 2.98626 10.2486 3.10753 10.3499 3.22533C10.3697 3.24829 10.4427 3.37327 10.4954 3.3431C10.582 3.29347 10.4986 3.13868 10.4615 3.08621C10.3724 2.96009 10.2463 2.79449 10.2463 2.64512C10.2463 2.55278 10.36 2.73586 10.3639 2.74077C10.5366 2.95813 10.7529 3.16363 10.8898 3.39763C10.9377 3.4794 10.8938 3.52845 10.8938 3.6087C10.8938 3.77671 11.0069 3.94811 11.0532 4.11064C11.1219 4.35165 11.143 4.60215 11.2106 4.84575C11.3047 5.18518 11.382 5.55578 11.354 5.90497C11.3453 6.01325 11.3324 6.12363 11.3102 6.23063C11.2431 6.55364 10.9762 6.8585 10.7504 7.12542C10.6417 7.25388 10.5123 7.36911 10.3987 7.49457C10.2526 7.65599 10.1357 7.83666 10.0102 8.00836C9.87811 8.18923 9.76957 8.36755 9.67853 8.56406C9.5061 8.93619 9.30344 9.28449 9.09879 9.64539" stroke="#F74F09" stroke-width="1.13906" stroke-linecap="round"/>
<path d="M10.1401 2.0618C10.1712 2.25097 10.0177 2.49134 9.96278 2.66411C9.6325 3.70262 9.45203 4.78158 9.24257 5.83859C9.0973 6.57164 8.98669 7.30983 8.8252 8.04079C8.77996 8.2455 8.73284 8.44273 8.59807 8.62098" stroke="#F74F09" stroke-width="1.13906" stroke-linecap="round"/>
<path d="M9.6892 3.12885C9.72983 3.23984 9.72924 3.36721 9.73701 3.4798C9.7954 4.32426 9.76389 5.16632 9.72408 6.01083C9.69034 6.72652 9.6626 7.44315 9.59956 8.15771C9.57779 8.40423 9.56343 8.65819 9.47405 8.89125" stroke="#F74F09" stroke-width="1.13906" stroke-linecap="round"/>
<path d="M10.3352 3.55566C10.8593 4.5581 10.8539 5.75145 10.6221 6.80522C10.4965 7.37625 10.3289 7.93902 10.2256 8.51339C10.1947 8.68519 10.1805 8.86564 10.12 9.03351" stroke="#F74F09" stroke-width="1.13906" stroke-linecap="round"/>
<path d="M11.5004 4.29559C11.5494 4.48039 11.5199 4.68996 11.5064 4.87578C11.4875 5.13528 11.4233 5.38713 11.357 5.64094C11.2596 6.0136 11.1166 6.38466 10.9665 6.74601C10.9021 6.90092 10.844 7.05686 10.8051 7.2171C10.7216 7.56085 10.5469 7.85858 10.3688 8.17673C10.3091 8.28326 10.0141 9.04855 9.76116 8.94821" stroke="#F74F09" stroke-width="1.13906" stroke-linecap="round"/>
<path d="M11.2357 5.21333C11.3225 5.19857 11.4065 5.17919 11.4964 5.1781C11.6872 5.17579 11.8358 5.32959 11.9478 5.43306C12.0207 5.50042 12.063 5.55513 12.066 5.64338C12.068 5.70077 12.0624 5.75874 12.0674 5.81603C12.077 5.92706 12.1022 6.06059 12.1553 6.16342C12.1804 6.21216 12.2192 6.25785 12.2357 6.30922C12.2534 6.3644 12.2599 6.42448 12.2643 6.48116C12.281 6.70015 12.2329 6.91453 12.1535 7.12329C12.0744 7.33128 12.0854 7.55707 11.9997 7.76505C11.962 7.85626 11.8989 7.93951 11.8687 8.03221C11.8523 8.08243 11.8397 8.13719 11.8129 8.18463C11.7652 8.26895 11.6956 8.34503 11.663 8.43438C11.6256 8.5365 11.5871 8.63789 11.5505 8.74025C11.5195 8.82654 11.4584 8.9057 11.4265 8.99243C11.4136 9.0276 11.4141 9.06482 11.408 9.10091C11.4016 9.13922 11.3819 9.17387 11.3781 9.21287C11.3693 9.30419 11.3377 9.3827 11.3008 9.46852C11.2594 9.56477 11.1734 9.64577 11.1175 9.73673C11.0744 9.80682 11.0317 9.88814 10.9667 9.94705" stroke="#F74F09" stroke-width="1.13906" stroke-linecap="round"/>
<path d="M10.4609 7.50049C10.4609 7.61435 10.4485 7.72553 10.4276 7.83858C10.3473 8.27408 10.2963 8.70237 10.31 9.14254C10.3137 9.26303 10.3128 9.38374 10.2778 9.50176C10.2376 9.63755 10.1366 9.75034 10.0703 9.87772C9.85601 10.2897 9.82968 10.7411 9.6609 11.1597C9.44517 11.6946 8.86655 11.9969 8.38602 12.3782C7.94133 12.7311 7.58491 13.0791 7.38518 13.5545" stroke="#F74F09" stroke-width="1.13906" stroke-linecap="round"/>
<path d="M8.66382 8.56213C8.66382 8.69412 8.62358 8.81273 8.58393 8.94249C8.40802 9.51832 8.21976 10.0897 8.08908 10.6735C7.95292 11.2817 7.77213 11.866 7.56536 12.4608" stroke="#F74F09" stroke-width="1.13906" stroke-linecap="round"/>
<path d="M9.72071 7.81726C9.64564 8.33467 9.48247 8.84876 9.33901 9.3563C9.22632 9.75498 9.08874 10.1406 8.88631 10.5167C8.60313 11.0428 8.3044 11.5615 8.10295 12.1121" stroke="#F74F09" stroke-width="1.13906" stroke-linecap="round"/>
<path d="M6.80144 13.8144C6.96662 13.7515 7.13222 13.691 7.29416 13.6227C7.37788 13.5874 7.45568 13.5753 7.54784 13.5611C7.63027 13.5485 7.70423 13.5214 7.77004 13.4786C7.79999 13.4592 7.8249 13.4376 7.85057 13.4147C7.89946 13.3712 7.95853 13.3355 8.01053 13.2942C8.06664 13.2497 8.13464 13.2148 8.18514 13.1661C8.22457 13.128 8.26068 13.0884 8.30045 13.0505C8.39228 12.9631 8.47911 12.8739 8.58415 12.796C8.62836 12.7633 8.6609 12.7229 8.70348 12.6891C8.75144 12.6511 8.80313 12.6197 8.84698 12.5782C8.89495 12.5328 8.95734 12.4992 9.00511 12.4547C9.03813 12.424 9.06535 12.3898 9.10103 12.3609C9.14135 12.3282 9.18669 12.2979 9.21889 12.2595C9.22956 12.2468 9.23472 12.2401 9.25258 12.2354" stroke="#F74F09" stroke-width="1.13906" stroke-linecap="round"/>
<path d="M8.95842 10.7076C8.98163 10.7573 9.04163 10.7953 9.08661 10.8324" stroke="#F74F09" stroke-width="1.13906" stroke-linecap="round"/>
<path d="M9.13494 11.3734C9.16788 11.3803 9.19488 11.3946 9.2246 11.4078C9.30382 11.443 9.38347 11.4767 9.45993 11.5157C9.55073 11.562 9.61877 11.5874 9.72504 11.5974C9.81661 11.606 9.80525 11.5339 9.83834 11.4831C9.89338 11.3985 9.97396 11.3266 10.0329 11.2437C10.0699 11.1915 10.1151 11.1438 10.1546 11.0929C10.204 11.0292 10.2445 10.9631 10.299 10.9018C10.3975 10.7908 10.4937 10.6726 10.5744 10.553C10.6182 10.4882 10.6761 10.4318 10.7256 10.3701" stroke="#F74F09" stroke-width="1.13906" stroke-linecap="round"/>
<path d="M11.7937 8.01974C11.7967 8.02849 11.7962 8.03397 11.7937 8.04276C11.7734 8.11335 11.7625 8.18613 11.757 8.25832C11.7475 8.38393 11.7695 8.51197 11.755 8.63686C11.7519 8.66413 11.7557 8.70008 11.7138 8.70253C11.6549 8.70599 11.5922 8.78272 11.5585 8.81449C11.49 8.87899 11.4676 8.95065 11.4427 9.03096C11.4216 9.0992 11.3877 9.16577 11.3534 9.23049C11.3218 9.28994 11.3124 9.35014 11.3124 9.41421C11.3124 9.44552 11.3149 9.47697 11.3386 9.42776C11.3687 9.36537 11.4217 9.31422 11.4535 9.25306C11.4938 9.17549 11.4816 9.09694 11.4876 9.01561C11.4955 8.91126 11.5769 8.82399 11.602 8.72261C11.6184 8.65656 11.6289 8.5884 11.6412 8.52174C11.6548 8.44855 11.6821 8.38019 11.7078 8.30956C11.731 8.24567 11.7446 8.18109 11.7732 8.11815C11.8016 8.05596 11.8566 8.00878 11.8961 7.95158C11.929 7.90385 11.9588 7.85808 12.0036 7.81659" stroke="#F74F09" stroke-width="1.13906" stroke-linecap="round"/>
<path d="M12.419 7.0405C12.4515 7.02203 12.4842 7.03576 12.5157 7.04868C12.5783 7.07434 12.6071 7.10331 12.6828 7.10427C12.7683 7.10532 12.854 7.10143 12.9395 7.10143C12.9447 7.10143 12.8989 7.1311 12.8908 7.13952C12.8751 7.15586 12.8862 7.20341 12.8862 7.22332C12.8862 7.25092 12.8648 7.27597 12.8442 7.29697C12.8262 7.31531 12.8261 7.35069 12.8215 7.37343C12.8164 7.39848 12.8006 7.42199 12.7952 7.44791C12.7909 7.46826 12.7733 7.48446 12.7713 7.5052C12.77 7.52012 12.771 7.53537 12.771 7.55033C12.771 7.57079 12.7596 7.58705 12.7582 7.60705C12.7561 7.63579 12.7269 7.66049 12.7262 7.69056C12.7255 7.71849 12.7198 7.74662 12.7198 7.77408C12.7198 7.80356 12.6962 7.82363 12.6942 7.85307C12.6908 7.90236 12.6302 7.94094 12.6302 7.98992C12.6302 8.02916 12.621 8.04599 12.5989 8.08106C12.5779 8.11432 12.5608 8.15986 12.552 8.19617C12.5407 8.24268 12.5293 8.28928 12.5185 8.33583C12.5104 8.37084 12.5151 8.40689 12.5071 8.4422C12.4994 8.47657 12.4894 8.50877 12.4894 8.54378" stroke="#F74F09" stroke-width="0.151875" stroke-linecap="round"/>
<path d="M10.5712 10.9555C10.7278 10.9103 10.8733 10.8408 11.0204 10.7795C11.1323 10.7328 11.2195 10.7043 11.2309 10.6046C11.2384 10.5391 11.3408 10.5085 11.3929 10.4688C11.4072 10.458 11.438 10.446 11.4457 10.4314C11.4565 10.4109 11.4506 10.3876 11.4597 10.3677C11.4749 10.3346 11.5551 10.2863 11.5851 10.2565C11.6326 10.2094 11.6525 10.1502 11.6942 10.0951C11.7492 10.0224 11.7979 9.94836 11.8442 9.87495C11.91 9.77048 11.984 9.68938 11.9906 9.56768C11.9937 9.5109 12.0294 9.44472 12.054 9.39223C12.1254 9.23953 12.2304 9.09687 12.2877 8.94082C12.3223 8.84686 12.3464 8.74996 12.3849 8.65702C12.417 8.5793 12.4626 8.5053 12.4919 8.42683C12.5294 8.32635 12.5482 8.21447 12.5482 8.1095" stroke="#F74F09" stroke-width="0.151875" stroke-linecap="round"/>
<path d="M5.69402 14.2941C5.81015 14.2941 5.989 14.2682 6.07842 14.3439C6.10123 14.3631 6.12545 14.379 6.15025 14.3969C6.19436 14.4288 6.20894 14.4681 6.2446 14.5031C6.27862 14.5365 6.36132 14.6159 6.41848 14.6159C6.45854 14.6159 6.49946 14.617 6.53747 14.6282C6.56993 14.6378 6.59168 14.6614 6.62479 14.6684C6.67746 14.6797 6.75433 14.6832 6.80854 14.6746C6.86487 14.6657 6.92919 14.6131 6.9754 14.5891C7.12829 14.5098 7.25574 14.4121 7.38939 14.3142C7.53082 14.2107 7.70351 14.1401 7.8569 14.0489C7.96566 13.9841 8.05519 13.9027 8.1709 13.8427C8.35855 13.7455 8.55468 13.6454 8.71303 13.5187C8.87151 13.3918 8.99497 13.2419 9.14391 13.1086C9.27874 12.9879 9.39171 12.8587 9.51426 12.7298C9.67118 12.5647 9.78424 12.3724 9.96555 12.2225C10.0771 12.1303 10.1249 12.011 10.2437 11.923C10.3985 11.8084 10.5192 11.6718 10.6626 11.5493C10.7176 11.5022 10.7805 11.4619 10.8365 11.4158C10.8827 11.3777 10.9112 11.3276 10.9506 11.285C11.0455 11.1825 11.1105 11.0557 11.1751 10.9398C11.2302 10.8411 11.3165 10.7419 11.3336 10.6336" stroke="#F74F09" stroke-width="0.151875" stroke-linecap="round"/>
<path d="M8.80223 5.62501C8.74187 5.70285 8.54856 5.92098 8.62936 5.86467C8.87434 5.69392 8.61626 5.79559 8.9083 5.60144C9.01443 5.53087 8.79944 5.83344 8.72563 5.93734C8.49838 6.25711 7.92691 7.01477 7.71987 7.2947C7.16369 8.04679 6.61963 8.80209 6.13857 9.60478C6.05599 9.74256 5.97756 9.87856 5.88518 10.0094" stroke="#F74F09" stroke-width="0.30375" stroke-linecap="round"/>
<path d="M6.34449 5.62501C6.34449 5.94494 6.29822 6.26839 6.27672 6.58755C6.27204 6.65693 6.27402 6.60394 6.27082 6.5571C6.26446 6.46389 6.2596 6.41037 6.24332 6.31547C6.21754 6.16536 6.06233 5.7427 6.14805 5.8686C6.20082 5.94609 6.21783 6.04263 6.25215 6.12984C6.32608 6.3177 6.47294 6.68751 6.55467 6.85666C6.64575 7.04518 6.82191 7.38765 6.99075 7.53633C7.26321 7.77625 7.56285 7.67439 7.80105 7.45284C8.19567 7.08578 8.43883 6.49831 8.5033 5.96877C8.54791 5.60245 8.25184 6.66278 8.135 7.01282C7.8486 7.87067 7.56194 8.72615 7.35612 9.60772C7.29057 9.88853 7.27885 9.96373 7.22942 10.2137C7.2214 10.2544 7.21409 10.2951 7.20487 10.3355C7.19771 10.3669 7.2069 10.2709 7.21273 10.2393C7.3476 9.50625 7.63245 8.80588 7.91399 8.11973C8.26425 7.26615 8.64279 6.42571 8.9826 5.56805C9.06881 5.3505 8.93935 6.0355 8.88635 6.26343C8.79843 6.6415 8.72265 6.91226 8.60054 7.28095C8.50571 7.56727 8.40301 7.91166 8.23615 8.1708C7.96544 8.59123 8.5305 7.17899 8.4483 6.68577" stroke="#F74F09" stroke-width="0.30375" stroke-linecap="round"/>
<path d="M8.56878 7.27561C9.15143 7.29094 9.68358 7.40875 10.24 7.5778C10.3792 7.62006 10.7679 7.66461 10.792 7.86302C10.8162 8.06254 10.833 8.26464 10.866 8.46276C10.8694 8.4834 10.862 8.61887 10.8953 8.59536C11.1047 8.44756 11.3115 8.10284 11.3162 7.84299C11.3202 7.62336 11.4423 7.40934 11.5351 7.21702C11.5498 7.18661 11.6135 7.01608 11.6646 6.995C11.7406 6.96376 11.5805 7.13726 11.5259 7.19852C11.3664 7.3773 11.2356 7.54987 11.1343 7.76898C11.0343 7.98505 11.0348 8.18337 10.994 8.41036C10.9689 8.54939 10.9052 8.6779 10.8783 8.81738C10.8631 8.89656 10.8122 8.89662 10.7612 8.95613C10.6814 9.04914 10.6032 9.10955 10.4883 9.15657C9.92255 9.38801 9.38791 9.65164 8.86479 9.96754C8.77425 10.0222 8.74849 10.0293 8.75378 9.91975C8.76587 9.66997 8.83747 9.44007 8.94188 9.21361C9.26813 8.5061 9.71007 7.85964 10.1506 7.2201" stroke="#F74F09" stroke-width="0.30375" stroke-linecap="round"/>
<path d="M13.6417 6.17182C13.6351 6.10548 13.6143 5.98177 13.5388 5.98177C13.4592 5.98177 13.4833 6.04256 13.4833 6.10759C13.4833 6.18273 13.515 6.24583 13.515 6.32139C13.515 6.33297 13.5162 6.39619 13.515 6.3777C13.5133 6.34951 13.4319 6.32329 13.4587 6.31436C13.562 6.27991 13.7723 6.31165 13.8669 6.31084C14.3319 6.30687 14.793 6.33277 15.2571 6.34603C15.4642 6.35194 15.6652 6.30063 15.873 6.29852C15.9386 6.29786 16.0044 6.29852 16.07 6.29852C16.1222 6.29852 15.9656 6.29954 15.9134 6.29763C15.631 6.28737 15.4745 5.95045 15.3759 5.73191C15.2036 5.35007 15.1076 4.94524 15.0389 4.53357C14.9955 4.27361 14.9926 3.99879 14.9315 3.74174C14.8885 3.56085 14.7835 3.74018 14.7503 3.81387C14.7044 3.91577 14.6593 4.01904 14.5655 4.08662C14.4946 4.13773 14.4269 4.11964 14.3473 4.13062C14.3263 4.13352 14.2386 4.18159 14.2699 4.13941C14.3734 4.00005 14.4757 3.855 14.5488 3.69686C14.5866 3.61522 14.6166 3.54398 14.6702 3.47162C14.8143 3.27714 14.9526 3.07821 15.0952 2.88213C15.2015 2.736 15.3391 2.57208 15.4128 2.40615C15.4361 2.35384 15.4329 2.34599 15.3899 2.38151C15.285 2.46824 15.2045 2.6325 15.1401 2.74752C14.9896 3.0159 14.8868 3.30489 14.7749 3.59039C14.7034 3.77319 14.6655 3.98498 14.5761 4.15877C14.5056 4.29584 14.4029 4.28723 14.2682 4.28723C14.2336 4.28723 14.1563 4.29916 14.2206 4.2573C14.7139 3.9362 15.2701 3.70454 15.8272 3.52178C16.1308 3.42215 16.4413 3.34267 16.7519 3.26837C16.803 3.25616 16.9043 3.22004 16.9657 3.22968C17.0073 3.2362 16.8734 3.35656 16.8637 3.36517C16.8224 3.40174 16.7675 3.43716 16.7493 3.49185C16.7348 3.53539 16.801 3.43558 16.8232 3.42412C17.1008 3.28067 17.5302 3.33295 17.8156 3.40828C18.1387 3.49355 18.6367 3.70928 18.7342 4.07254C18.7664 4.19269 18.7311 4.3092 18.6919 4.42273C18.625 4.6169 18.542 4.80365 18.4825 5.00076C18.4078 5.24885 18.3548 5.50183 18.3189 5.75829C18.3186 5.76052 18.2777 5.98704 18.2995 6.01434C18.3035 6.01934 18.304 6.00221 18.3048 5.99587C18.3156 5.91624 18.3405 5.65306 18.3435 5.6193C18.3772 5.24475 18.4058 4.86987 18.4192 4.49399C18.4251 4.32879 18.4245 4.16385 18.4245 3.99865C18.4245 3.969 18.4483 3.89653 18.4218 3.90977C18.3962 3.92259 18.3985 3.96216 18.3884 3.98897C18.3087 4.20038 18.2325 4.41327 18.1588 4.62685C18.0785 4.85946 18.01 5.09693 17.9256 5.32806C17.902 5.39286 17.8747 5.4883 17.7945 5.41342C17.6565 5.28442 17.5525 5.08184 17.469 4.91895C17.3122 4.61322 17.1909 4.29264 17.073 3.97048C17.0108 3.80018 16.9455 3.63109 16.8971 3.45666C16.8908 3.43386 16.8548 3.31582 16.8091 3.34053C16.7175 3.39004 16.7323 3.6645 16.7264 3.75053C16.724 3.78507 16.7111 3.88659 16.7238 3.85435C16.7901 3.68475 16.8331 3.5034 16.8936 3.33174C16.9808 3.08402 17.0718 2.83075 17.2085 2.60498C17.3047 2.44612 17.4338 2.35022 17.5939 2.25835C18.0677 1.98652 18.5948 1.77675 19.1319 1.67237C19.2277 1.65375 19.3612 1.61902 19.4618 1.63365C19.5285 1.64336 19.5073 1.76861 19.5067 1.8061C19.5028 2.03944 19.5182 2.31415 19.4328 2.53636C19.3611 2.72264 19.1461 2.37989 19.1055 2.32871C18.9825 2.17394 18.8592 2.01652 18.7509 1.85097C18.714 1.79467 18.6595 1.71649 18.6532 1.64421C18.6402 1.49381 18.9034 1.8209 18.9964 1.93984C19.4682 2.54336 19.6394 3.35547 19.7548 4.09719" stroke="#F74F09" stroke-width="0.30375" stroke-linecap="round"/>
<path d="M20.799 8.65835C20.7568 8.53647 20.7565 8.39047 20.7427 8.26419C20.6968 7.84418 20.6919 7.42458 20.6846 7.00251C20.6791 6.68116 20.6587 6.35966 20.6653 6.03823C20.6665 5.98011 20.6683 5.80604 20.6723 5.86402C20.6791 5.96073 20.6833 6.05672 20.6926 6.15347C20.7455 6.70905 20.8673 7.25159 20.9319 7.80405C20.9389 7.86441 20.9329 8.04634 20.9415 7.98616C20.9698 7.78862 20.9743 7.57798 20.9926 7.38084C21.0172 7.11547 21.0632 6.86137 21.0999 6.59956" stroke="#F74F09" stroke-width="0.30375" stroke-linecap="round"/>
<path d="M20.7381 8.40497C20.7437 8.37404 20.7672 8.32678 20.7698 8.39263C20.7775 8.59214 20.8348 8.75258 20.907 8.93813C20.9802 9.12611 21.0889 9.33223 21.0989 9.53818C21.1049 9.66435 21.039 9.77626 21.039 9.89891C21.039 10.0223 21.021 10.1376 20.9985 10.2588C20.936 10.5952 20.9021 10.9377 20.8648 11.2776C20.8396 11.5075 20.8147 11.7377 20.7962 11.9683C20.7894 12.0523 20.7923 12.1436 20.7751 12.227C20.7503 12.3463 20.7107 12.4616 20.6871 12.5824C20.665 12.6956 20.6718 12.8158 20.6396 12.9255C20.6206 12.9901 20.597 13.0528 20.5956 13.1208C20.5949 13.1549 20.6078 13.2116 20.5938 13.2432C20.58 13.2742 20.5439 13.2738 20.5331 13.3135C20.5278 13.333 20.5209 13.3501 20.5155 13.369C20.5103 13.3872 20.4668 13.4184 20.4531 13.4253" stroke="#F74F09" stroke-width="0.30375" stroke-linecap="round"/>
<path d="M6.90252 12.6655C6.91955 12.6655 6.93504 12.6715 6.95158 12.6742C6.95968 12.6756 6.96448 12.681 6.96952 12.6867C6.97143 12.6889 6.97382 12.6914 6.97394 12.6945C6.974 12.696 6.97483 12.6974 6.97467 12.6989C6.97436 12.7013 6.96952 12.7001 6.96817 12.6994" stroke="#F74F09" stroke-width="0.30375" stroke-linecap="round"/>
<path d="M6.8637 12.706C6.86528 12.7007 6.88948 12.7133 6.89288 12.7148C6.89999 12.718 6.90553 12.7202 6.90553 12.7282C6.90553 12.7304 6.90626 12.7382 6.90626 12.732" stroke="#F74F09" stroke-width="0.30375" stroke-linecap="round"/>
<path d="M7.08117 12.7522C7.08148 12.7567 7.0832 12.7589 7.08518 12.7627C7.08593 12.7641 7.08508 12.7642 7.08407 12.7649C7.07901 12.7685 7.0783 12.7658 7.0783 12.7608" stroke="#F74F09" stroke-width="0.0759375" stroke-linecap="round"/>
<path d="M6.95339 12.8141C6.954 12.8149 6.95426 12.8158 6.95463 12.8167C6.95558 12.8191 6.95777 12.8212 6.95914 12.8234C6.95951 12.824 6.96032 12.8251 6.96014 12.8259C6.96005 12.8263 6.95945 12.8263 6.9592 12.8266C6.95835 12.8275 6.95884 12.8293 6.95854 12.8304C6.95807 12.8322 6.95728 12.8317 6.95598 12.8312C6.9541 12.8305 6.9527 12.8318 6.95114 12.8326C6.95015 12.8331 6.95009 12.8327 6.95013 12.8341C6.95015 12.8354 6.95112 12.8345 6.95161 12.834" stroke="#F74F09" stroke-width="0.0759375" stroke-linecap="round"/>
<path d="M6.95452 12.8468L6.95471 12.8469" stroke="#F74F09" stroke-width="0.0759375" stroke-linecap="round"/>
<path d="M6.97649 12.8241C6.98054 12.8241 6.98429 12.823 6.98832 12.8229C6.99042 12.8229 6.99253 12.8229 6.99461 12.8229C6.99563 12.8229 6.99577 12.8226 6.99577 12.8217" stroke="#F74F09" stroke-width="0.0759375" stroke-linecap="round"/>
<path d="M7.03215 12.786C7.03602 12.7838 7.0411 12.7832 7.04542 12.7825C7.04771 12.7821 7.04961 12.7811 7.05198 12.7809C7.0536 12.7807 7.05556 12.7792 7.05716 12.7787C7.05797 12.7784 7.05998 12.7779 7.06046 12.7772C7.06115 12.7763 7.06273 12.7769 7.06324 12.7759C7.06447 12.7736 7.0686 12.7736 7.07077 12.7727C7.07326 12.7717 7.07569 12.7701 7.07836 12.7695C7.07964 12.7692 7.08075 12.7693 7.08199 12.7688C7.08288 12.7683 7.08371 12.7679 7.08466 12.7676" stroke="#F74F09" stroke-width="0.0759375" stroke-linecap="round"/>
<path d="M7.00652 12.8002C7.00739 12.8002 7.00808 12.7999 7.00889 12.7996C7.01081 12.7989 7.01342 12.7992 7.01535 12.7997C7.01737 12.8003 7.01853 12.8015 7.01891 12.8037C7.01901 12.8044 7.01914 12.8083 7.0192 12.8082C7.02047 12.8069 7.02076 12.8046 7.02244 12.8037C7.02381 12.8031 7.02545 12.8029 7.02697 12.8029" stroke="#F74F09" stroke-width="0.0759375" stroke-linecap="round"/>
<path d="M7.05193 12.791C7.05206 12.7909 7.05218 12.7908 7.05234 12.7908" stroke="#F74F09" stroke-width="0.0759375" stroke-linecap="round"/>
<path d="M7.04827 12.7738C7.04942 12.7732 7.05054 12.7729 7.05177 12.7725C7.05363 12.7719 7.05511 12.7705 7.0571 12.7699C7.05843 12.7695 7.05961 12.7689 7.06086 12.7683C7.06258 12.7674 7.06451 12.7673 7.06637 12.767C7.07 12.7664 7.07346 12.7657 7.07698 12.7646" stroke="#F74F09" stroke-width="0.0759375" stroke-linecap="round"/>
<path d="M8.90777 11.2015C8.42252 11.3471 8.00721 11.5116 7.61768 11.8503C7.50456 11.9487 7.27309 12.1457 7.27517 12.3452C7.27622 12.4467 7.37302 12.4341 7.42152 12.481C7.51975 12.5761 7.05017 12.7957 6.97942 12.8311" stroke="#D5D5D5" stroke-width="0.30375" stroke-linecap="round"/>
<path d="M10.4287 9.49036C9.86648 9.721 9.28025 9.90084 8.70557 10.0969C8.69318 10.1011 7.85537 10.3854 7.73385 10.4289C7.59516 10.4785 7.52084 10.4791 7.47887 10.6099C7.31107 11.1327 7.11258 11.6465 6.97942 12.1792" stroke="#F74F09" stroke-width="0.30375" stroke-linecap="round"/>
<path d="M8.11944 9.51753C7.73856 10.1983 7.45863 10.9186 7.19301 11.6511C7.13201 11.8192 7.08422 12.0171 7.25637 11.4459C7.40575 10.9501 7.51211 10.5721 7.64566 10.0698C7.75494 9.6588 7.7759 9.57014 7.65772 9.94906C7.41057 10.7417 7.27907 11.2065 7.00288 12.0223C6.89645 12.3366 6.78754 12.6503 6.66641 12.9593C6.60833 13.1074 6.5625 13.266 6.46573 13.3923C6.29921 13.6096 6.57423 12.8539 6.66489 12.5956C6.84222 12.0906 7.09496 11.4655 7.31372 10.9721C7.38062 10.8211 7.45202 10.6721 7.52796 10.5255C7.55376 10.4756 7.56259 10.3792 7.6185 10.3836C7.66785 10.3875 7.61255 10.4826 7.60491 10.5315C7.58636 10.6507 7.56154 10.7689 7.54003 10.8876C7.47377 11.2537 7.4209 11.5351 7.36501 11.9015C7.34948 12.0034 7.33445 12.1053 7.32427 12.2078C7.32034 12.2474 7.30221 12.293 7.32277 12.327C7.36693 12.4001 7.42179 12.1868 7.45857 12.1098C7.58203 11.851 7.93713 11.0733 7.77542 11.3101C7.62496 11.5304 7.52432 11.7966 7.40423 12.0343C7.35246 12.1369 7.2814 12.2372 7.23525 12.3421C7.1775 12.4734 7.16512 12.6596 7.13264 12.7948C7.0629 13.0851 6.8397 13.8693 7.22318 12.8491C7.32544 12.5771 7.651 11.6958 7.71507 11.3644C7.72443 11.316 7.71768 11.202 7.67283 11.2225C7.57452 11.2675 7.5323 11.3873 7.47063 11.476C7.40379 11.5722 7.34539 11.6742 7.28806 11.7763C7.2668 11.8142 7.19181 11.8943 7.23525 11.8955C7.28794 11.897 7.30999 11.8205 7.34087 11.7778C7.42291 11.6643 7.50032 11.5473 7.57324 11.4278C7.79204 11.0689 8.05161 10.5879 8.24921 10.2207C8.3803 9.97698 8.52744 9.74032 8.63246 9.48432C8.63752 9.47201 8.63788 9.44208 8.62492 9.4451C8.59161 9.45287 8.56885 9.48434 8.54192 9.50546C8.45563 9.57312 8.36714 9.63804 8.2824 9.70764" stroke="#F74F09" stroke-width="0.30375" stroke-linecap="round"/>
<path d="M8.61751 9.25372C8.45478 9.63517 8.2946 10.0179 8.13979 10.4026C8.05948 10.6022 7.97771 10.8013 7.90331 11.0032C7.89902 11.0148 7.71816 11.5005 7.90647 11.1488C7.97016 11.0298 8.0273 10.9073 8.08027 10.7831C8.12861 10.6699 8.26619 10.3656 8.24584 10.2003C8.22393 10.0222 7.96813 10.247 7.92799 10.2624" stroke="#F74F09" stroke-width="0.30375" stroke-linecap="round"/>
<path d="M8.45851 9.28793C8.37132 9.47693 8.35605 9.50884 8.24704 9.75585C8.16511 9.94148 8.0832 10.1272 8.00327 10.3137C7.923 10.5009 7.83777 10.6863 7.76647 10.8772C7.73121 10.9715 7.66907 11.0683 7.68415 11.1678C7.69061 11.2105 7.77104 11.1448 7.80255 11.1153C7.9132 11.0116 8.37346 10.4474 8.44332 10.3612C8.53937 10.2425 8.63333 10.1222 8.72761 10.0022C8.74839 9.97568 8.9694 9.67953 8.84632 9.85651C8.77569 9.95809 8.70362 10.0587 8.63327 10.1604C8.54937 10.2818 8.22444 10.7481 8.13117 10.9171C8.12451 10.9291 8.12376 10.9663 8.13496 10.9582C8.19154 10.9177 8.29467 10.7775 8.34928 10.7214C8.49853 10.5684 8.08231 11.0554 7.94564 11.2197C7.74567 11.4603 7.53523 11.6935 7.34413 11.9412C7.19418 12.1356 7.03646 12.3512 6.9427 12.5804C6.9283 12.6156 6.90143 12.6587 6.91959 12.6922C6.93223 12.7154 6.97664 12.698 6.99843 12.683C7.08279 12.6249 7.15623 12.5519 7.22859 12.4794C7.81728 11.8895 9.33882 9.89967 8.83652 10.5647C8.50495 11.0037 8.16266 11.4345 7.84498 11.8839C7.72704 12.0508 7.61073 12.219 7.50211 12.3921C7.42143 12.5206 7.19748 12.8631 7.34256 12.8185C7.43364 12.7905 7.5049 12.7173 7.57715 12.6551C7.82716 12.4401 8.34135 11.9122 8.54589 11.699C8.97902 11.2477 9.40419 10.7871 9.81318 10.3137C9.85779 10.262 9.90515 10.2124 9.94456 10.1566C9.96094 10.1335 9.90246 10.1947 9.88284 10.2152C9.53332 10.5797 9.1977 10.9578 8.85995 11.3331C8.76631 11.4371 8.67539 11.5436 8.57914 11.6452C8.38413 11.851 8.53072 11.6442 8.6127 11.5246C8.97292 10.999 9.37055 10.5001 9.7698 10.0041C9.87784 9.86984 9.98808 9.73744 10.0965 9.60357C10.1601 9.5251 10.2275 9.44953 10.2858 9.36709C10.2963 9.35231 10.3183 9.31041 10.3007 9.31485C10.2511 9.32738 10.2124 9.36669 10.1706 9.39621C9.95345 9.54962 9.74457 9.71446 9.53109 9.87298C9.41146 9.96183 9.29168 10.0505 9.17145 10.1386C9.07705 10.2078 8.98272 10.2771 8.88716 10.3447C8.85383 10.3683 8.77146 10.4507 8.78492 10.4121C8.801 10.366 8.85825 10.3476 8.89666 10.3175C9.14161 10.1255 9.47115 9.88102 9.71788 9.70774C9.87081 9.60033 10.0254 9.49533 10.182 9.39335C10.2948 9.31991 10.4051 9.24108 10.5258 9.18156C10.5636 9.16291 10.6422 9.12097 10.6509 9.16226C10.6653 9.23095 10.599 9.29358 10.5619 9.35316C10.3448 9.7015 10.0902 10.0251 9.85908 10.3643C9.72975 10.5541 9.60045 10.7441 9.47729 10.938C9.3887 11.0774 9.29603 11.2154 9.22402 11.3641C9.20061 11.4124 9.14734 11.4963 9.19426 11.5224C9.24921 11.553 9.31225 11.4765 9.36521 11.4426C9.45747 11.3835 9.53879 11.3088 9.62767 11.2448C9.68026 11.2068 9.72598 11.1501 9.78944 11.1368C9.82045 11.1303 9.76365 11.1954 9.74417 11.2204C9.68224 11.2997 9.5055 11.4909 9.42379 11.5686C9.28024 11.7051 9.67604 11.263 9.80653 11.114C10.0438 10.843 10.2906 10.575 10.4941 10.2766C10.5245 10.2322 10.5525 10.1861 10.5771 10.1383C10.7133 9.87334 10.5515 10.1799 10.5955 10.0458" stroke="#F74F09" stroke-width="0.91125" stroke-linecap="round"/>
<path d="M11.8552 6.21303C11.9012 6.15281 12.1966 6.18748 12.1983 6.18752C12.4184 6.19327 12.7952 6.20811 13.0128 6.23452C13.1032 6.24549 13.1938 6.25967 13.2811 6.28557C13.3877 6.3172 13.3955 6.33249 13.4291 6.41415C13.4452 6.45316 13.4723 6.55194 13.3966 6.48936C13.3293 6.43384 13.2731 6.35658 13.2149 6.2916" stroke="#F74F09" stroke-width="0.91125" stroke-linecap="round"/>
<path d="M14.1966 6.29199C14.0521 6.68583 13.8713 7.02551 13.9631 7.45679C14.0217 7.73225 14.1382 7.97608 14.2785 8.21663" stroke="#F74F09" stroke-width="0.91125" stroke-linecap="round"/>
<path d="M11.8903 6.36389C11.8903 6.47417 11.8928 6.58445 11.8951 6.69472C11.8981 6.84017 11.8878 6.9881 11.8998 7.1321" stroke="#F74F09" stroke-width="0.91125" stroke-linecap="round"/>
<path d="M12.6986 6.15875C12.65 6.22331 12.604 6.28969 12.5578 6.35597C12.4975 6.44256 12.4134 6.53708 12.3773 6.63856C12.3559 6.69862 12.3511 6.76532 12.3323 6.82676C12.3192 6.86957 12.3043 6.90735 12.283 6.94684C12.2417 7.02312 12.2155 7.09627 12.1867 7.178C12.1486 7.28619 12.0862 7.38137 12.0534 7.49213C12.0128 7.62927 11.9587 7.7614 11.9166 7.89798C11.8634 8.07049 11.7962 8.2375 11.7279 8.40456C11.6635 8.56182 11.6146 8.72864 11.5344 8.87853" stroke="#F74F09" stroke-width="0.91125" stroke-linecap="round"/>
<path d="M12.1407 5.93622C11.6201 6.91682 11.2714 7.97906 10.7582 8.96305C10.242 9.95262 9.58091 10.8357 8.89837 11.7143" stroke="#F74F09" stroke-width="0.91125" stroke-linecap="round"/>
<path d="M12.1009 7.70987C11.4137 8.58981 10.7247 9.46822 10.0217 10.3356C9.72848 10.6974 9.43524 11.0592 9.13564 11.4156C6.23169 14.8711 10.0343 10.3348 8.04101 12.6288" stroke="#F74F09" stroke-width="0.91125" stroke-linecap="round"/>
<path d="M11.7278 7.76535C11.7048 7.78979 11.6966 7.79787 11.6739 7.82539C11.2008 8.39912 10.7324 8.97709 10.2637 9.55434C9.50232 10.4919 8.74038 11.4282 8.01433 12.3933" stroke="#F74F09" stroke-width="0.91125" stroke-linecap="round"/>
<path d="M10.1016 11.4935C10.109 11.4758 10.1186 11.4668 10.1324 11.4497C10.2789 11.2675 10.4278 11.0872 10.5684 10.9003C10.746 10.6643 10.9079 10.4145 11.07 10.1675C11.1218 10.0886 11.1674 10.0072 11.2125 9.92427C11.3168 9.73258 11.4237 9.54223 11.5264 9.34969C11.6118 9.1895 11.6927 9.02693 11.7714 8.86335C11.8029 8.79798 11.863 8.67146 11.894 8.59925C12.0092 8.33029 11.863 8.66778 11.936 8.48148" stroke="#F74F09" stroke-width="0.91125" stroke-linecap="round"/>
<path d="M5.74149 14.8195C6.21734 14.5146 6.68733 14.2002 7.15939 13.8895C7.75075 13.5004 8.3457 13.1174 8.93902 12.7314" stroke="#F74F09" stroke-width="0.91125" stroke-linecap="round"/>
<path d="M5.58988 14.3204C5.62153 14.3005 5.6481 14.2796 5.67817 14.2555C5.90898 14.0712 6.13616 13.8822 6.36505 13.6954" stroke="#F74F09" stroke-width="0.91125" stroke-linecap="round"/>
<path d="M14.0078 22.5181L14.005 22.5231L14.0023 22.5282C13.7377 23.0383 13.5188 23.5478 13.332 24.0664C13.1513 23.5439 12.9161 23.0316 12.6133 22.5199C11.8553 21.0692 10.7224 19.7234 9.2799 18.6285C7.84509 17.5395 6.22328 16.6487 4.4154 16.0056L4.41145 16.0042L4.40745 16.0028C3.87671 15.8294 3.34657 15.6811 2.8095 15.5515C3.34892 15.4213 3.88131 15.2601 4.41409 15.0614C6.22116 14.4673 7.9097 13.575 9.29087 12.4292C10.6636 11.2903 11.7936 9.99734 12.6122 8.5484L12.615 8.54337L12.6176 8.53825C12.8823 8.02817 13.1012 7.51876 13.2879 7C13.4687 7.52259 13.7039 8.03488 14.0067 8.54667C14.7642 9.99633 15.8961 11.3413 17.3373 12.4358C18.7783 13.5787 20.4028 14.42 22.2045 15.0609L22.2086 15.0623L22.2126 15.0636C22.7434 15.237 23.2735 15.3854 23.8105 15.515C23.2711 15.6451 22.7387 15.8064 22.2059 16.005C20.3949 16.6005 18.7708 17.4932 17.3346 18.6328C15.8919 19.7776 14.8238 21.0736 14.0078 22.5181Z" fill="#F74F09" stroke="#FBFBFA" stroke-width="0.648"/>
</g>
<defs>
<clipPath id="clip0_1_2241">
<rect width="24.381" height="24.7658" fill="white" transform="translate(0.809498)"/>
</clipPath>
</defs>
</svg>
