<svg width="16" height="16" viewBox="0 0 16 16" fill="none" xmlns="http://www.w3.org/2000/svg">
<path d="M7.375 14.3077V8.35895L2.16667 5.34291V11.1475C2.16667 11.1901 2.17736 11.2302 2.19875 11.2677C2.22014 11.3051 2.25215 11.3371 2.29479 11.3637L7.375 14.3077ZM8.625 14.3077L13.7052 11.3637C13.7478 11.3371 13.7799 11.3051 13.8013 11.2677C13.8226 11.2302 13.8333 11.1901 13.8333 11.1475V5.34291L8.625 8.35895V14.3077ZM7.24688 15.6715L1.67 12.4615C1.43278 12.3248 1.24792 12.1421 1.11542 11.9135C0.982918 11.6848 0.916668 11.4337 0.916668 11.1602V4.83979C0.916668 4.56632 0.982918 4.31521 1.11542 4.08646C1.24792 3.85784 1.43278 3.6752 1.67 3.53854L7.24688 0.328538C7.48396 0.191733 7.735 0.123329 8 0.123329C8.265 0.123329 8.51604 0.191733 8.75313 0.328538L14.33 3.53854C14.5672 3.6752 14.7521 3.85784 14.8846 4.08646C15.0171 4.31521 15.0833 4.56632 15.0833 4.83979V11.1602C15.0833 11.4337 15.0171 11.6848 14.8846 11.9135C14.7521 12.1421 14.5672 12.3248 14.33 12.4615L8.75313 15.6715C8.51604 15.8083 8.265 15.8767 8 15.8767C7.735 15.8767 7.48396 15.8083 7.24688 15.6715ZM11.2131 5.41666L13.1458 4.3077L8.12813 1.40541C8.08549 1.37875 8.04278 1.36541 8 1.36541C7.95722 1.36541 7.91452 1.37875 7.87188 1.40541L6.0625 2.44708L11.2131 5.41666ZM8 7.28208L9.9375 6.1602L4.79167 3.18583L2.85417 4.3077L8 7.28208Z" fill="#383838"/>
</svg>
