<svg width="20" height="19" viewBox="0 0 20 19" fill="none" xmlns="http://www.w3.org/2000/svg">
<path d="M13.9988 5.63635V2.63635H5.99878V5.63635H3.99878V0.636353H15.9988V5.63635H13.9988ZM15.9988 10.1364C16.2821 10.1364 16.5196 10.0405 16.7113 9.84885C16.9029 9.65719 16.9988 9.41969 16.9988 9.13635C16.9988 8.85302 16.9029 8.61552 16.7113 8.42385C16.5196 8.23219 16.2821 8.13635 15.9988 8.13635C15.7154 8.13635 15.4779 8.23219 15.2863 8.42385C15.0946 8.61552 14.9988 8.85302 14.9988 9.13635C14.9988 9.41969 15.0946 9.65719 15.2863 9.84885C15.4779 10.0405 15.7154 10.1364 15.9988 10.1364ZM13.9988 16.6364V12.6364H5.99878V16.6364H13.9988ZM15.9988 18.6364H3.99878V14.6364H-0.0012207V8.63635C-0.0012207 7.78635 0.290446 7.07385 0.873779 6.49885C1.45711 5.92385 2.16545 5.63635 2.99878 5.63635H16.9988C17.8488 5.63635 18.5613 5.92385 19.1363 6.49885C19.7113 7.07385 19.9988 7.78635 19.9988 8.63635V14.6364H15.9988V18.6364ZM17.9988 12.6364V8.63635C17.9988 8.35302 17.9029 8.11552 17.7113 7.92385C17.5196 7.73219 17.2821 7.63635 16.9988 7.63635H2.99878C2.71545 7.63635 2.47795 7.73219 2.28628 7.92385C2.09461 8.11552 1.99878 8.35302 1.99878 8.63635V12.6364H3.99878V10.6364H15.9988V12.6364H17.9988Z" fill="#3E3C3C"/>
</svg>
