<svg width="13" height="19" viewBox="0 0 13 19" fill="none" xmlns="http://www.w3.org/2000/svg">
<path d="M7.975 18.6364L1.25 11.6364V9.63635H4.75C5.63333 9.63635 6.39583 9.34885 7.0375 8.77385C7.67917 8.19885 8.06667 7.48635 8.2 6.63635H0.25V4.63635H7.9C7.61667 4.05302 7.19583 3.57385 6.6375 3.19885C6.07917 2.82385 5.45 2.63635 4.75 2.63635H0.25V0.636353H12.25V2.63635H9C9.23333 2.91969 9.44167 3.22802 9.625 3.56135C9.80833 3.89469 9.95 4.25302 10.05 4.63635H12.25V6.63635H10.225C10.0917 8.05302 9.50833 9.24052 8.475 10.1989C7.44167 11.1572 6.2 11.6364 4.75 11.6364H4.025L10.75 18.6364H7.975Z" fill="#3E3C3C"/>
</svg>
