<svg width="10" height="11" viewBox="0 0 10 11" fill="none" xmlns="http://www.w3.org/2000/svg">
<path d="M3.13672 1.10156C3.23438 0.886719 3.44922 0.75 3.68359 0.75H6.04688C6.28125 0.75 6.49609 0.886719 6.59375 1.10156L6.75 1.375H8.625C8.95703 1.375 9.25 1.66797 9.25 2C9.25 2.35156 8.95703 2.625 8.625 2.625H1.125C0.773438 2.625 0.5 2.35156 0.5 2C0.5 1.66797 0.773438 1.375 1.125 1.375H3L3.13672 1.10156ZM8.19531 9.87109C8.17578 10.3789 7.76562 10.75 7.25781 10.75H2.47266C1.96484 10.75 1.55469 10.3789 1.53516 9.87109L1.10547 3.25H8.625L8.19531 9.87109Z" fill="#DC2626"/>
</svg>
